<?xml version="1.0" encoding="UTF-8" standalone="no"?>
<svg
   xmlns:dc="http://purl.org/dc/elements/1.1/"
   xmlns:cc="http://creativecommons.org/ns#"
   xmlns:rdf="http://www.w3.org/1999/02/22-rdf-syntax-ns#"
   xmlns:svg="http://www.w3.org/2000/svg"
   xmlns="http://www.w3.org/2000/svg"
   xmlns:sodipodi="http://sodipodi.sourceforge.net/DTD/sodipodi-0.dtd"
   xmlns:inkscape="http://www.inkscape.org/namespaces/inkscape"
   version="1.1"
   id="svg2"
   width="60"
   height="60"
   viewBox="0 0 60 60"
   sodipodi:docname="en_us.svg"
   inkscape:version="1.0.2 (e86c870879, 2021-01-15)"
   inkscape:export-filename="/home/ilink/Projects/cassulo/resources/images/en_us.png"
   inkscape:export-xdpi="96"
   inkscape:export-ydpi="96">
  <metadata
     id="metadata8">
    <rdf:RDF>
      <cc:Work
         rdf:about="">
        <dc:format>image/svg+xml</dc:format>
        <dc:type
           rdf:resource="http://purl.org/dc/dcmitype/StillImage" />
        <dc:title></dc:title>
      </cc:Work>
    </rdf:RDF>
  </metadata>
  <defs
     id="defs6" />
  <sodipodi:namedview
     pagecolor="#ffffff"
     bordercolor="#666666"
     borderopacity="1"
     objecttolerance="10"
     gridtolerance="10"
     guidetolerance="10"
     inkscape:pageopacity="0"
     inkscape:pageshadow="2"
     inkscape:window-width="1280"
     inkscape:window-height="736"
     id="namedview4"
     showgrid="false"
     inkscape:pagecheckerboard="true"
     inkscape:zoom="8.2833333"
     inkscape:cx="23.05835"
     inkscape:cy="30"
     inkscape:window-x="0"
     inkscape:window-y="0"
     inkscape:window-maximized="1"
     inkscape:current-layer="g10" />
  <g
     inkscape:groupmode="layer"
     inkscape:label="Image"
     id="g10">
    <g
       id="g1244"
       transform="matrix(0.1176916,0,0,0.1176916,-8.4732019,2.2537193)">
      <rect
         style="fill:#ffffff;stroke:#010000;stroke-width:0.0174192"
         id="rect837"
         width="467.30524"
         height="298.97714"
         x="93.245834"
         y="86.265556" />
      <rect
         style="fill:#bd3d44;fill-opacity:1;stroke:#010000;stroke-width:0.0204124"
         id="rect841"
         width="467.30264"
         height="26.272457"
         x="93.247131"
         y="86.265556" />
      <rect
         style="fill:#bd3d44;fill-opacity:1;stroke:#010000;stroke-width:0.0204124"
         id="rect843"
         width="467.30264"
         height="26.272457"
         x="93.247131"
         y="140.80649" />
      <rect
         style="fill:#bd3d44;fill-opacity:1;stroke:#010000;stroke-width:0.0204124"
         id="rect845"
         width="467.30264"
         height="26.272457"
         x="93.247131"
         y="195.34743" />
      <rect
         style="fill:#bd3d44;fill-opacity:1;stroke:#010000;stroke-width:0.0204124"
         id="rect847"
         width="467.30264"
         height="26.272457"
         x="93.247131"
         y="249.88837" />
      <rect
         style="fill:#bd3d44;fill-opacity:1;stroke:#010000;stroke-width:0.0204124"
         id="rect849"
         width="467.30264"
         height="26.272457"
         x="93.247131"
         y="304.42929" />
      <rect
         style="fill:#bd3d44;fill-opacity:1;stroke:#010000;stroke-width:0.0204124"
         id="rect851"
         width="467.30264"
         height="26.272457"
         x="93.247131"
         y="358.97025" />
      <rect
         style="fill:#192f5d;fill-opacity:1;stroke:#010000;stroke-width:0.0166534"
         id="rect853"
         width="266.91876"
         height="189.89528"
         x="93.247131"
         y="86.265556" />
      <g
         id="g1177"
         transform="translate(-0.54745966)">
        <g
           id="g1141">
          <path
             sodipodi:type="star"
             style="fill:#ffffff;fill-opacity:1;stroke:#010000;stroke-width:0.017"
             id="path857"
             sodipodi:sides="5"
             sodipodi:cx="116.42268"
             sodipodi:cy="110.16115"
             sodipodi:r1="32.454773"
             sodipodi:r2="16.227386"
             sodipodi:arg1="0.96010635"
             sodipodi:arg2="1.5884249"
             inkscape:flatsided="false"
             inkscape:rounded="0"
             inkscape:randomized="0"
             inkscape:transform-center-x="-0.037213004"
             inkscape:transform-center-y="-0.6448298"
             transform="matrix(0.21049365,0,0,0.22003785,92.017573,74.705279)"
             d="m 135.03332,136.7498 -18.89669,-10.36379 -19.250259,9.69125 4.017159,-21.1744 -15.165585,-15.31333 21.379425,-2.72271 9.87741,-19.155402 9.19606,19.491675 21.27016,3.474637 -15.69595,14.76923 z" />
          <path
             sodipodi:type="star"
             style="fill:#ffffff;fill-opacity:1;stroke:#010000;stroke-width:0.017"
             id="path990"
             sodipodi:sides="5"
             sodipodi:cx="116.42268"
             sodipodi:cy="110.16115"
             sodipodi:r1="32.454773"
             sodipodi:r2="16.227386"
             sodipodi:arg1="0.96010635"
             sodipodi:arg2="1.5884249"
             inkscape:flatsided="false"
             inkscape:rounded="0"
             inkscape:randomized="0"
             inkscape:transform-center-x="-0.037213004"
             inkscape:transform-center-y="-0.6448298"
             transform="matrix(0.21049365,0,0,0.22003785,313.40343,74.705279)"
             d="m 135.03332,136.7498 -18.89669,-10.36379 -19.250259,9.69125 4.017159,-21.1744 -15.165585,-15.31333 21.379425,-2.72271 9.87741,-19.155402 9.19606,19.491675 21.27016,3.474637 -15.69595,14.76923 z" />
          <path
             sodipodi:type="star"
             style="fill:#ffffff;fill-opacity:1;stroke:#010000;stroke-width:0.017"
             id="path992"
             sodipodi:sides="5"
             sodipodi:cx="116.42268"
             sodipodi:cy="110.16115"
             sodipodi:r1="32.454773"
             sodipodi:r2="16.227386"
             sodipodi:arg1="0.96010635"
             sodipodi:arg2="1.5884249"
             inkscape:flatsided="false"
             inkscape:rounded="0"
             inkscape:randomized="0"
             inkscape:transform-center-x="-0.037213004"
             inkscape:transform-center-y="-0.6448298"
             transform="matrix(0.21049365,0,0,0.22003785,269.12627,74.705279)"
             d="m 135.03332,136.7498 -18.89669,-10.36379 -19.250259,9.69125 4.017159,-21.1744 -15.165585,-15.31333 21.379425,-2.72271 9.87741,-19.155402 9.19606,19.491675 21.27016,3.474637 -15.69595,14.76923 z" />
          <path
             sodipodi:type="star"
             style="fill:#ffffff;fill-opacity:1;stroke:#010000;stroke-width:0.017"
             id="path994"
             sodipodi:sides="5"
             sodipodi:cx="116.42268"
             sodipodi:cy="110.16115"
             sodipodi:r1="32.454773"
             sodipodi:r2="16.227386"
             sodipodi:arg1="0.96010635"
             sodipodi:arg2="1.5884249"
             inkscape:flatsided="false"
             inkscape:rounded="0"
             inkscape:randomized="0"
             inkscape:transform-center-x="-0.037213004"
             inkscape:transform-center-y="-0.6448298"
             transform="matrix(0.21049365,0,0,0.22003785,224.8491,74.705279)"
             d="m 135.03332,136.7498 -18.89669,-10.36379 -19.250259,9.69125 4.017159,-21.1744 -15.165585,-15.31333 21.379425,-2.72271 9.87741,-19.155402 9.19606,19.491675 21.27016,3.474637 -15.69595,14.76923 z" />
          <path
             sodipodi:type="star"
             style="fill:#ffffff;fill-opacity:1;stroke:#010000;stroke-width:0.017"
             id="path996"
             sodipodi:sides="5"
             sodipodi:cx="116.42268"
             sodipodi:cy="110.16115"
             sodipodi:r1="32.454773"
             sodipodi:r2="16.227386"
             sodipodi:arg1="0.96010635"
             sodipodi:arg2="1.5884249"
             inkscape:flatsided="false"
             inkscape:rounded="0"
             inkscape:randomized="0"
             inkscape:transform-center-x="-0.037213004"
             inkscape:transform-center-y="-0.6448298"
             transform="matrix(0.21049365,0,0,0.22003785,180.57191,74.705279)"
             d="m 135.03332,136.7498 -18.89669,-10.36379 -19.250259,9.69125 4.017159,-21.1744 -15.165585,-15.31333 21.379425,-2.72271 9.87741,-19.155402 9.19606,19.491675 21.27016,3.474637 -15.69595,14.76923 z" />
          <path
             sodipodi:type="star"
             style="fill:#ffffff;fill-opacity:1;stroke:#010000;stroke-width:0.017"
             id="path998"
             sodipodi:sides="5"
             sodipodi:cx="116.42268"
             sodipodi:cy="110.16115"
             sodipodi:r1="32.454773"
             sodipodi:r2="16.227386"
             sodipodi:arg1="0.96010635"
             sodipodi:arg2="1.5884249"
             inkscape:flatsided="false"
             inkscape:rounded="0"
             inkscape:randomized="0"
             inkscape:transform-center-x="-0.037213004"
             inkscape:transform-center-y="-0.6448298"
             transform="matrix(0.21049365,0,0,0.22003785,136.29475,74.705279)"
             d="m 135.03332,136.7498 -18.89669,-10.36379 -19.250259,9.69125 4.017159,-21.1744 -15.165585,-15.31333 21.379425,-2.72271 9.87741,-19.155402 9.19606,19.491675 21.27016,3.474637 -15.69595,14.76923 z" />
        </g>
        <g
           id="g1162">
          <path
             sodipodi:type="star"
             style="fill:#ffffff;fill-opacity:1;stroke:#010000;stroke-width:0.017"
             id="path1016"
             sodipodi:sides="5"
             sodipodi:cx="116.42268"
             sodipodi:cy="110.16115"
             sodipodi:r1="32.454773"
             sodipodi:r2="16.227386"
             sodipodi:arg1="0.96010635"
             sodipodi:arg2="1.5884249"
             inkscape:flatsided="false"
             inkscape:rounded="0"
             inkscape:randomized="0"
             inkscape:transform-center-x="-0.037213004"
             inkscape:transform-center-y="-0.6448298"
             transform="matrix(0.21049365,0,0,0.22003785,289.84574,97.322032)"
             d="m 135.03332,136.7498 -18.89669,-10.36379 -19.250259,9.69125 4.017159,-21.1744 -15.165585,-15.31333 21.379425,-2.72271 9.87741,-19.155402 9.19606,19.491675 21.27016,3.474637 -15.69595,14.76923 z" />
          <path
             sodipodi:type="star"
             style="fill:#ffffff;fill-opacity:1;stroke:#010000;stroke-width:0.017"
             id="path1018"
             sodipodi:sides="5"
             sodipodi:cx="116.42268"
             sodipodi:cy="110.16115"
             sodipodi:r1="32.454773"
             sodipodi:r2="16.227386"
             sodipodi:arg1="0.96010635"
             sodipodi:arg2="1.5884249"
             inkscape:flatsided="false"
             inkscape:rounded="0"
             inkscape:randomized="0"
             inkscape:transform-center-x="-0.037213004"
             inkscape:transform-center-y="-0.6448298"
             transform="matrix(0.21049365,0,0,0.22003785,245.56858,97.322032)"
             d="m 135.03332,136.7498 -18.89669,-10.36379 -19.250259,9.69125 4.017159,-21.1744 -15.165585,-15.31333 21.379425,-2.72271 9.87741,-19.155402 9.19606,19.491675 21.27016,3.474637 -15.69595,14.76923 z" />
          <path
             sodipodi:type="star"
             style="fill:#ffffff;fill-opacity:1;stroke:#010000;stroke-width:0.017"
             id="path1020"
             sodipodi:sides="5"
             sodipodi:cx="116.42268"
             sodipodi:cy="110.16115"
             sodipodi:r1="32.454773"
             sodipodi:r2="16.227386"
             sodipodi:arg1="0.96010635"
             sodipodi:arg2="1.5884249"
             inkscape:flatsided="false"
             inkscape:rounded="0"
             inkscape:randomized="0"
             inkscape:transform-center-x="-0.037213004"
             inkscape:transform-center-y="-0.6448298"
             transform="matrix(0.21049365,0,0,0.22003785,201.29141,97.322032)"
             d="m 135.03332,136.7498 -18.89669,-10.36379 -19.250259,9.69125 4.017159,-21.1744 -15.165585,-15.31333 21.379425,-2.72271 9.87741,-19.155402 9.19606,19.491675 21.27016,3.474637 -15.69595,14.76923 z" />
          <path
             sodipodi:type="star"
             style="fill:#ffffff;fill-opacity:1;stroke:#010000;stroke-width:0.017"
             id="path1022"
             sodipodi:sides="5"
             sodipodi:cx="116.42268"
             sodipodi:cy="110.16115"
             sodipodi:r1="32.454773"
             sodipodi:r2="16.227386"
             sodipodi:arg1="0.96010635"
             sodipodi:arg2="1.5884249"
             inkscape:flatsided="false"
             inkscape:rounded="0"
             inkscape:randomized="0"
             inkscape:transform-center-x="-0.037213004"
             inkscape:transform-center-y="-0.6448298"
             transform="matrix(0.21049365,0,0,0.22003785,157.01422,97.322032)"
             d="m 135.03332,136.7498 -18.89669,-10.36379 -19.250259,9.69125 4.017159,-21.1744 -15.165585,-15.31333 21.379425,-2.72271 9.87741,-19.155402 9.19606,19.491675 21.27016,3.474637 -15.69595,14.76923 z" />
          <path
             sodipodi:type="star"
             style="fill:#ffffff;fill-opacity:1;stroke:#010000;stroke-width:0.017"
             id="path1024"
             sodipodi:sides="5"
             sodipodi:cx="116.42268"
             sodipodi:cy="110.16115"
             sodipodi:r1="32.454773"
             sodipodi:r2="16.227386"
             sodipodi:arg1="0.96010635"
             sodipodi:arg2="1.5884249"
             inkscape:flatsided="false"
             inkscape:rounded="0"
             inkscape:randomized="0"
             inkscape:transform-center-x="-0.037213004"
             inkscape:transform-center-y="-0.6448298"
             transform="matrix(0.21049365,0,0,0.22003785,112.73706,97.322032)"
             d="m 135.03332,136.7498 -18.89669,-10.36379 -19.250259,9.69125 4.017159,-21.1744 -15.165585,-15.31333 21.379425,-2.72271 9.87741,-19.155402 9.19606,19.491675 21.27016,3.474637 -15.69595,14.76923 z" />
        </g>
      </g>
      <g
         id="g1074"
         transform="translate(-2.1617839e-6,76.723601)">
        <path
           sodipodi:type="star"
           style="fill:#ffffff;fill-opacity:1;stroke:#010000;stroke-width:0.017"
           id="path1052"
           sodipodi:sides="5"
           sodipodi:cx="116.42268"
           sodipodi:cy="110.16115"
           sodipodi:r1="32.454773"
           sodipodi:r2="16.227386"
           sodipodi:arg1="0.96010635"
           sodipodi:arg2="1.5884249"
           inkscape:flatsided="false"
           inkscape:rounded="0"
           inkscape:randomized="0"
           inkscape:transform-center-x="-0.037213004"
           inkscape:transform-center-y="-0.6448298"
           transform="matrix(0.21049365,0,0,0.22003785,91.470118,80.445007)"
           d="m 135.03332,136.7498 -18.89669,-10.36379 -19.250259,9.69125 4.017159,-21.1744 -15.165585,-15.31333 21.379425,-2.72271 9.87741,-19.155402 9.19606,19.491675 21.27016,3.474637 -15.69595,14.76923 z" />
        <path
           sodipodi:type="star"
           style="fill:#ffffff;fill-opacity:1;stroke:#010000;stroke-width:0.017"
           id="path1054"
           sodipodi:sides="5"
           sodipodi:cx="116.42268"
           sodipodi:cy="110.16115"
           sodipodi:r1="32.454773"
           sodipodi:r2="16.227386"
           sodipodi:arg1="0.96010635"
           sodipodi:arg2="1.5884249"
           inkscape:flatsided="false"
           inkscape:rounded="0"
           inkscape:randomized="0"
           inkscape:transform-center-x="-0.037213004"
           inkscape:transform-center-y="-0.6448298"
           transform="matrix(0.21049365,0,0,0.22003785,312.85597,80.445007)"
           d="m 135.03332,136.7498 -18.89669,-10.36379 -19.250259,9.69125 4.017159,-21.1744 -15.165585,-15.31333 21.379425,-2.72271 9.87741,-19.155402 9.19606,19.491675 21.27016,3.474637 -15.69595,14.76923 z" />
        <path
           sodipodi:type="star"
           style="fill:#ffffff;fill-opacity:1;stroke:#010000;stroke-width:0.017"
           id="path1056"
           sodipodi:sides="5"
           sodipodi:cx="116.42268"
           sodipodi:cy="110.16115"
           sodipodi:r1="32.454773"
           sodipodi:r2="16.227386"
           sodipodi:arg1="0.96010635"
           sodipodi:arg2="1.5884249"
           inkscape:flatsided="false"
           inkscape:rounded="0"
           inkscape:randomized="0"
           inkscape:transform-center-x="-0.037213004"
           inkscape:transform-center-y="-0.6448298"
           transform="matrix(0.21049365,0,0,0.22003785,268.57881,80.445007)"
           d="m 135.03332,136.7498 -18.89669,-10.36379 -19.250259,9.69125 4.017159,-21.1744 -15.165585,-15.31333 21.379425,-2.72271 9.87741,-19.155402 9.19606,19.491675 21.27016,3.474637 -15.69595,14.76923 z" />
        <path
           sodipodi:type="star"
           style="fill:#ffffff;fill-opacity:1;stroke:#010000;stroke-width:0.017"
           id="path1058"
           sodipodi:sides="5"
           sodipodi:cx="116.42268"
           sodipodi:cy="110.16115"
           sodipodi:r1="32.454773"
           sodipodi:r2="16.227386"
           sodipodi:arg1="0.96010635"
           sodipodi:arg2="1.5884249"
           inkscape:flatsided="false"
           inkscape:rounded="0"
           inkscape:randomized="0"
           inkscape:transform-center-x="-0.037213004"
           inkscape:transform-center-y="-0.6448298"
           transform="matrix(0.21049365,0,0,0.22003785,224.30164,80.445007)"
           d="m 135.03332,136.7498 -18.89669,-10.36379 -19.250259,9.69125 4.017159,-21.1744 -15.165585,-15.31333 21.379425,-2.72271 9.87741,-19.155402 9.19606,19.491675 21.27016,3.474637 -15.69595,14.76923 z" />
        <path
           sodipodi:type="star"
           style="fill:#ffffff;fill-opacity:1;stroke:#010000;stroke-width:0.017"
           id="path1060"
           sodipodi:sides="5"
           sodipodi:cx="116.42268"
           sodipodi:cy="110.16115"
           sodipodi:r1="32.454773"
           sodipodi:r2="16.227386"
           sodipodi:arg1="0.96010635"
           sodipodi:arg2="1.5884249"
           inkscape:flatsided="false"
           inkscape:rounded="0"
           inkscape:randomized="0"
           inkscape:transform-center-x="-0.037213004"
           inkscape:transform-center-y="-0.6448298"
           transform="matrix(0.21049365,0,0,0.22003785,180.02445,80.445007)"
           d="m 135.03332,136.7498 -18.89669,-10.36379 -19.250259,9.69125 4.017159,-21.1744 -15.165585,-15.31333 21.379425,-2.72271 9.87741,-19.155402 9.19606,19.491675 21.27016,3.474637 -15.69595,14.76923 z" />
        <path
           sodipodi:type="star"
           style="fill:#ffffff;fill-opacity:1;stroke:#010000;stroke-width:0.017"
           id="path1062"
           sodipodi:sides="5"
           sodipodi:cx="116.42268"
           sodipodi:cy="110.16115"
           sodipodi:r1="32.454773"
           sodipodi:r2="16.227386"
           sodipodi:arg1="0.96010635"
           sodipodi:arg2="1.5884249"
           inkscape:flatsided="false"
           inkscape:rounded="0"
           inkscape:randomized="0"
           inkscape:transform-center-x="-0.037213004"
           inkscape:transform-center-y="-0.6448298"
           transform="matrix(0.21049365,0,0,0.22003785,135.74729,80.445007)"
           d="m 135.03332,136.7498 -18.89669,-10.36379 -19.250259,9.69125 4.017159,-21.1744 -15.165585,-15.31333 21.379425,-2.72271 9.87741,-19.155402 9.19606,19.491675 21.27016,3.474637 -15.69595,14.76923 z" />
        <path
           sodipodi:type="star"
           style="fill:#ffffff;fill-opacity:1;stroke:#010000;stroke-width:0.017"
           id="path1064"
           sodipodi:sides="5"
           sodipodi:cx="116.42268"
           sodipodi:cy="110.16115"
           sodipodi:r1="32.454773"
           sodipodi:r2="16.227386"
           sodipodi:arg1="0.96010635"
           sodipodi:arg2="1.5884249"
           inkscape:flatsided="false"
           inkscape:rounded="0"
           inkscape:randomized="0"
           inkscape:transform-center-x="-0.037213004"
           inkscape:transform-center-y="-0.6448298"
           transform="matrix(0.21049365,0,0,0.22003785,289.29828,103.06176)"
           d="m 135.03332,136.7498 -18.89669,-10.36379 -19.250259,9.69125 4.017159,-21.1744 -15.165585,-15.31333 21.379425,-2.72271 9.87741,-19.155402 9.19606,19.491675 21.27016,3.474637 -15.69595,14.76923 z" />
        <path
           sodipodi:type="star"
           style="fill:#ffffff;fill-opacity:1;stroke:#010000;stroke-width:0.017"
           id="path1066"
           sodipodi:sides="5"
           sodipodi:cx="116.42268"
           sodipodi:cy="110.16115"
           sodipodi:r1="32.454773"
           sodipodi:r2="16.227386"
           sodipodi:arg1="0.96010635"
           sodipodi:arg2="1.5884249"
           inkscape:flatsided="false"
           inkscape:rounded="0"
           inkscape:randomized="0"
           inkscape:transform-center-x="-0.037213004"
           inkscape:transform-center-y="-0.6448298"
           transform="matrix(0.21049365,0,0,0.22003785,245.02112,103.06176)"
           d="m 135.03332,136.7498 -18.89669,-10.36379 -19.250259,9.69125 4.017159,-21.1744 -15.165585,-15.31333 21.379425,-2.72271 9.87741,-19.155402 9.19606,19.491675 21.27016,3.474637 -15.69595,14.76923 z" />
        <path
           sodipodi:type="star"
           style="fill:#ffffff;fill-opacity:1;stroke:#010000;stroke-width:0.017"
           id="path1068"
           sodipodi:sides="5"
           sodipodi:cx="116.42268"
           sodipodi:cy="110.16115"
           sodipodi:r1="32.454773"
           sodipodi:r2="16.227386"
           sodipodi:arg1="0.96010635"
           sodipodi:arg2="1.5884249"
           inkscape:flatsided="false"
           inkscape:rounded="0"
           inkscape:randomized="0"
           inkscape:transform-center-x="-0.037213004"
           inkscape:transform-center-y="-0.6448298"
           transform="matrix(0.21049365,0,0,0.22003785,200.74395,103.06176)"
           d="m 135.03332,136.7498 -18.89669,-10.36379 -19.250259,9.69125 4.017159,-21.1744 -15.165585,-15.31333 21.379425,-2.72271 9.87741,-19.155402 9.19606,19.491675 21.27016,3.474637 -15.69595,14.76923 z" />
        <path
           sodipodi:type="star"
           style="fill:#ffffff;fill-opacity:1;stroke:#010000;stroke-width:0.017"
           id="path1070"
           sodipodi:sides="5"
           sodipodi:cx="116.42268"
           sodipodi:cy="110.16115"
           sodipodi:r1="32.454773"
           sodipodi:r2="16.227386"
           sodipodi:arg1="0.96010635"
           sodipodi:arg2="1.5884249"
           inkscape:flatsided="false"
           inkscape:rounded="0"
           inkscape:randomized="0"
           inkscape:transform-center-x="-0.037213004"
           inkscape:transform-center-y="-0.6448298"
           transform="matrix(0.21049365,0,0,0.22003785,156.46676,103.06176)"
           d="m 135.03332,136.7498 -18.89669,-10.36379 -19.250259,9.69125 4.017159,-21.1744 -15.165585,-15.31333 21.379425,-2.72271 9.87741,-19.155402 9.19606,19.491675 21.27016,3.474637 -15.69595,14.76923 z" />
        <path
           sodipodi:type="star"
           style="fill:#ffffff;fill-opacity:1;stroke:#010000;stroke-width:0.017"
           id="path1072"
           sodipodi:sides="5"
           sodipodi:cx="116.42268"
           sodipodi:cy="110.16115"
           sodipodi:r1="32.454773"
           sodipodi:r2="16.227386"
           sodipodi:arg1="0.96010635"
           sodipodi:arg2="1.5884249"
           inkscape:flatsided="false"
           inkscape:rounded="0"
           inkscape:randomized="0"
           inkscape:transform-center-x="-0.037213004"
           inkscape:transform-center-y="-0.6448298"
           transform="matrix(0.21049365,0,0,0.22003785,112.1896,103.06176)"
           d="m 135.03332,136.7498 -18.89669,-10.36379 -19.250259,9.69125 4.017159,-21.1744 -15.165585,-15.31333 21.379425,-2.72271 9.87741,-19.155402 9.19606,19.491675 21.27016,3.474637 -15.69595,14.76923 z" />
      </g>
      <g
         id="g1098"
         transform="translate(-2.1617839e-6,37.523509)">
        <path
           sodipodi:type="star"
           style="fill:#ffffff;fill-opacity:1;stroke:#010000;stroke-width:0.017"
           id="path1076"
           sodipodi:sides="5"
           sodipodi:cx="116.42268"
           sodipodi:cy="110.16115"
           sodipodi:r1="32.454773"
           sodipodi:r2="16.227386"
           sodipodi:arg1="0.96010635"
           sodipodi:arg2="1.5884249"
           inkscape:flatsided="false"
           inkscape:rounded="0"
           inkscape:randomized="0"
           inkscape:transform-center-x="-0.037213004"
           inkscape:transform-center-y="-0.6448298"
           transform="matrix(0.21049365,0,0,0.22003785,91.470118,80.445007)"
           d="m 135.03332,136.7498 -18.89669,-10.36379 -19.250259,9.69125 4.017159,-21.1744 -15.165585,-15.31333 21.379425,-2.72271 9.87741,-19.155402 9.19606,19.491675 21.27016,3.474637 -15.69595,14.76923 z" />
        <path
           sodipodi:type="star"
           style="fill:#ffffff;fill-opacity:1;stroke:#010000;stroke-width:0.017"
           id="path1078"
           sodipodi:sides="5"
           sodipodi:cx="116.42268"
           sodipodi:cy="110.16115"
           sodipodi:r1="32.454773"
           sodipodi:r2="16.227386"
           sodipodi:arg1="0.96010635"
           sodipodi:arg2="1.5884249"
           inkscape:flatsided="false"
           inkscape:rounded="0"
           inkscape:randomized="0"
           inkscape:transform-center-x="-0.037213004"
           inkscape:transform-center-y="-0.6448298"
           transform="matrix(0.21049365,0,0,0.22003785,312.85597,80.445007)"
           d="m 135.03332,136.7498 -18.89669,-10.36379 -19.250259,9.69125 4.017159,-21.1744 -15.165585,-15.31333 21.379425,-2.72271 9.87741,-19.155402 9.19606,19.491675 21.27016,3.474637 -15.69595,14.76923 z" />
        <path
           sodipodi:type="star"
           style="fill:#ffffff;fill-opacity:1;stroke:#010000;stroke-width:0.017"
           id="path1080"
           sodipodi:sides="5"
           sodipodi:cx="116.42268"
           sodipodi:cy="110.16115"
           sodipodi:r1="32.454773"
           sodipodi:r2="16.227386"
           sodipodi:arg1="0.96010635"
           sodipodi:arg2="1.5884249"
           inkscape:flatsided="false"
           inkscape:rounded="0"
           inkscape:randomized="0"
           inkscape:transform-center-x="-0.037213004"
           inkscape:transform-center-y="-0.6448298"
           transform="matrix(0.21049365,0,0,0.22003785,268.57881,80.445007)"
           d="m 135.03332,136.7498 -18.89669,-10.36379 -19.250259,9.69125 4.017159,-21.1744 -15.165585,-15.31333 21.379425,-2.72271 9.87741,-19.155402 9.19606,19.491675 21.27016,3.474637 -15.69595,14.76923 z" />
        <path
           sodipodi:type="star"
           style="fill:#ffffff;fill-opacity:1;stroke:#010000;stroke-width:0.017"
           id="path1082"
           sodipodi:sides="5"
           sodipodi:cx="116.42268"
           sodipodi:cy="110.16115"
           sodipodi:r1="32.454773"
           sodipodi:r2="16.227386"
           sodipodi:arg1="0.96010635"
           sodipodi:arg2="1.5884249"
           inkscape:flatsided="false"
           inkscape:rounded="0"
           inkscape:randomized="0"
           inkscape:transform-center-x="-0.037213004"
           inkscape:transform-center-y="-0.6448298"
           transform="matrix(0.21049365,0,0,0.22003785,224.30164,80.445007)"
           d="m 135.03332,136.7498 -18.89669,-10.36379 -19.250259,9.69125 4.017159,-21.1744 -15.165585,-15.31333 21.379425,-2.72271 9.87741,-19.155402 9.19606,19.491675 21.27016,3.474637 -15.69595,14.76923 z" />
        <path
           sodipodi:type="star"
           style="fill:#ffffff;fill-opacity:1;stroke:#010000;stroke-width:0.017"
           id="path1084"
           sodipodi:sides="5"
           sodipodi:cx="116.42268"
           sodipodi:cy="110.16115"
           sodipodi:r1="32.454773"
           sodipodi:r2="16.227386"
           sodipodi:arg1="0.96010635"
           sodipodi:arg2="1.5884249"
           inkscape:flatsided="false"
           inkscape:rounded="0"
           inkscape:randomized="0"
           inkscape:transform-center-x="-0.037213004"
           inkscape:transform-center-y="-0.6448298"
           transform="matrix(0.21049365,0,0,0.22003785,180.02445,80.445007)"
           d="m 135.03332,136.7498 -18.89669,-10.36379 -19.250259,9.69125 4.017159,-21.1744 -15.165585,-15.31333 21.379425,-2.72271 9.87741,-19.155402 9.19606,19.491675 21.27016,3.474637 -15.69595,14.76923 z" />
        <path
           sodipodi:type="star"
           style="fill:#ffffff;fill-opacity:1;stroke:#010000;stroke-width:0.017"
           id="path1086"
           sodipodi:sides="5"
           sodipodi:cx="116.42268"
           sodipodi:cy="110.16115"
           sodipodi:r1="32.454773"
           sodipodi:r2="16.227386"
           sodipodi:arg1="0.96010635"
           sodipodi:arg2="1.5884249"
           inkscape:flatsided="false"
           inkscape:rounded="0"
           inkscape:randomized="0"
           inkscape:transform-center-x="-0.037213004"
           inkscape:transform-center-y="-0.6448298"
           transform="matrix(0.21049365,0,0,0.22003785,135.74729,80.445007)"
           d="m 135.03332,136.7498 -18.89669,-10.36379 -19.250259,9.69125 4.017159,-21.1744 -15.165585,-15.31333 21.379425,-2.72271 9.87741,-19.155402 9.19606,19.491675 21.27016,3.474637 -15.69595,14.76923 z" />
        <path
           sodipodi:type="star"
           style="fill:#ffffff;fill-opacity:1;stroke:#010000;stroke-width:0.017"
           id="path1088"
           sodipodi:sides="5"
           sodipodi:cx="116.42268"
           sodipodi:cy="110.16115"
           sodipodi:r1="32.454773"
           sodipodi:r2="16.227386"
           sodipodi:arg1="0.96010635"
           sodipodi:arg2="1.5884249"
           inkscape:flatsided="false"
           inkscape:rounded="0"
           inkscape:randomized="0"
           inkscape:transform-center-x="-0.037213004"
           inkscape:transform-center-y="-0.6448298"
           transform="matrix(0.21049365,0,0,0.22003785,289.29828,103.06176)"
           d="m 135.03332,136.7498 -18.89669,-10.36379 -19.250259,9.69125 4.017159,-21.1744 -15.165585,-15.31333 21.379425,-2.72271 9.87741,-19.155402 9.19606,19.491675 21.27016,3.474637 -15.69595,14.76923 z" />
        <path
           sodipodi:type="star"
           style="fill:#ffffff;fill-opacity:1;stroke:#010000;stroke-width:0.017"
           id="path1090"
           sodipodi:sides="5"
           sodipodi:cx="116.42268"
           sodipodi:cy="110.16115"
           sodipodi:r1="32.454773"
           sodipodi:r2="16.227386"
           sodipodi:arg1="0.96010635"
           sodipodi:arg2="1.5884249"
           inkscape:flatsided="false"
           inkscape:rounded="0"
           inkscape:randomized="0"
           inkscape:transform-center-x="-0.037213004"
           inkscape:transform-center-y="-0.6448298"
           transform="matrix(0.21049365,0,0,0.22003785,245.02112,103.06176)"
           d="m 135.03332,136.7498 -18.89669,-10.36379 -19.250259,9.69125 4.017159,-21.1744 -15.165585,-15.31333 21.379425,-2.72271 9.87741,-19.155402 9.19606,19.491675 21.27016,3.474637 -15.69595,14.76923 z" />
        <path
           sodipodi:type="star"
           style="fill:#ffffff;fill-opacity:1;stroke:#010000;stroke-width:0.017"
           id="path1092"
           sodipodi:sides="5"
           sodipodi:cx="116.42268"
           sodipodi:cy="110.16115"
           sodipodi:r1="32.454773"
           sodipodi:r2="16.227386"
           sodipodi:arg1="0.96010635"
           sodipodi:arg2="1.5884249"
           inkscape:flatsided="false"
           inkscape:rounded="0"
           inkscape:randomized="0"
           inkscape:transform-center-x="-0.037213004"
           inkscape:transform-center-y="-0.6448298"
           transform="matrix(0.21049365,0,0,0.22003785,200.74395,103.06176)"
           d="m 135.03332,136.7498 -18.89669,-10.36379 -19.250259,9.69125 4.017159,-21.1744 -15.165585,-15.31333 21.379425,-2.72271 9.87741,-19.155402 9.19606,19.491675 21.27016,3.474637 -15.69595,14.76923 z" />
        <path
           sodipodi:type="star"
           style="fill:#ffffff;fill-opacity:1;stroke:#010000;stroke-width:0.017"
           id="path1094"
           sodipodi:sides="5"
           sodipodi:cx="116.42268"
           sodipodi:cy="110.16115"
           sodipodi:r1="32.454773"
           sodipodi:r2="16.227386"
           sodipodi:arg1="0.96010635"
           sodipodi:arg2="1.5884249"
           inkscape:flatsided="false"
           inkscape:rounded="0"
           inkscape:randomized="0"
           inkscape:transform-center-x="-0.037213004"
           inkscape:transform-center-y="-0.6448298"
           transform="matrix(0.21049365,0,0,0.22003785,156.46676,103.06176)"
           d="m 135.03332,136.7498 -18.89669,-10.36379 -19.250259,9.69125 4.017159,-21.1744 -15.165585,-15.31333 21.379425,-2.72271 9.87741,-19.155402 9.19606,19.491675 21.27016,3.474637 -15.69595,14.76923 z" />
        <path
           sodipodi:type="star"
           style="fill:#ffffff;fill-opacity:1;stroke:#010000;stroke-width:0.017"
           id="path1096"
           sodipodi:sides="5"
           sodipodi:cx="116.42268"
           sodipodi:cy="110.16115"
           sodipodi:r1="32.454773"
           sodipodi:r2="16.227386"
           sodipodi:arg1="0.96010635"
           sodipodi:arg2="1.5884249"
           inkscape:flatsided="false"
           inkscape:rounded="0"
           inkscape:randomized="0"
           inkscape:transform-center-x="-0.037213004"
           inkscape:transform-center-y="-0.6448298"
           transform="matrix(0.21049365,0,0,0.22003785,112.1896,103.06176)"
           d="m 135.03332,136.7498 -18.89669,-10.36379 -19.250259,9.69125 4.017159,-21.1744 -15.165585,-15.31333 21.379425,-2.72271 9.87741,-19.155402 9.19606,19.491675 21.27016,3.474637 -15.69595,14.76923 z" />
      </g>
      <g
         id="g1122"
         transform="translate(-2.1617839e-6,114.17583)">
        <path
           sodipodi:type="star"
           style="fill:#ffffff;fill-opacity:1;stroke:#010000;stroke-width:0.017"
           id="path1100"
           sodipodi:sides="5"
           sodipodi:cx="116.42268"
           sodipodi:cy="110.16115"
           sodipodi:r1="32.454773"
           sodipodi:r2="16.227386"
           sodipodi:arg1="0.96010635"
           sodipodi:arg2="1.5884249"
           inkscape:flatsided="false"
           inkscape:rounded="0"
           inkscape:randomized="0"
           inkscape:transform-center-x="-0.037213004"
           inkscape:transform-center-y="-0.6448298"
           transform="matrix(0.21049365,0,0,0.22003785,91.470118,80.445007)"
           d="m 135.03332,136.7498 -18.89669,-10.36379 -19.250259,9.69125 4.017159,-21.1744 -15.165585,-15.31333 21.379425,-2.72271 9.87741,-19.155402 9.19606,19.491675 21.27016,3.474637 -15.69595,14.76923 z" />
        <path
           sodipodi:type="star"
           style="fill:#ffffff;fill-opacity:1;stroke:#010000;stroke-width:0.017"
           id="path1102"
           sodipodi:sides="5"
           sodipodi:cx="116.42268"
           sodipodi:cy="110.16115"
           sodipodi:r1="32.454773"
           sodipodi:r2="16.227386"
           sodipodi:arg1="0.96010635"
           sodipodi:arg2="1.5884249"
           inkscape:flatsided="false"
           inkscape:rounded="0"
           inkscape:randomized="0"
           inkscape:transform-center-x="-0.037213004"
           inkscape:transform-center-y="-0.6448298"
           transform="matrix(0.21049365,0,0,0.22003785,312.85597,80.445007)"
           d="m 135.03332,136.7498 -18.89669,-10.36379 -19.250259,9.69125 4.017159,-21.1744 -15.165585,-15.31333 21.379425,-2.72271 9.87741,-19.155402 9.19606,19.491675 21.27016,3.474637 -15.69595,14.76923 z" />
        <path
           sodipodi:type="star"
           style="fill:#ffffff;fill-opacity:1;stroke:#010000;stroke-width:0.017"
           id="path1104"
           sodipodi:sides="5"
           sodipodi:cx="116.42268"
           sodipodi:cy="110.16115"
           sodipodi:r1="32.454773"
           sodipodi:r2="16.227386"
           sodipodi:arg1="0.96010635"
           sodipodi:arg2="1.5884249"
           inkscape:flatsided="false"
           inkscape:rounded="0"
           inkscape:randomized="0"
           inkscape:transform-center-x="-0.037213004"
           inkscape:transform-center-y="-0.6448298"
           transform="matrix(0.21049365,0,0,0.22003785,268.57881,80.445007)"
           d="m 135.03332,136.7498 -18.89669,-10.36379 -19.250259,9.69125 4.017159,-21.1744 -15.165585,-15.31333 21.379425,-2.72271 9.87741,-19.155402 9.19606,19.491675 21.27016,3.474637 -15.69595,14.76923 z" />
        <path
           sodipodi:type="star"
           style="fill:#ffffff;fill-opacity:1;stroke:#010000;stroke-width:0.017"
           id="path1106"
           sodipodi:sides="5"
           sodipodi:cx="116.42268"
           sodipodi:cy="110.16115"
           sodipodi:r1="32.454773"
           sodipodi:r2="16.227386"
           sodipodi:arg1="0.96010635"
           sodipodi:arg2="1.5884249"
           inkscape:flatsided="false"
           inkscape:rounded="0"
           inkscape:randomized="0"
           inkscape:transform-center-x="-0.037213004"
           inkscape:transform-center-y="-0.6448298"
           transform="matrix(0.21049365,0,0,0.22003785,224.30164,80.445007)"
           d="m 135.03332,136.7498 -18.89669,-10.36379 -19.250259,9.69125 4.017159,-21.1744 -15.165585,-15.31333 21.379425,-2.72271 9.87741,-19.155402 9.19606,19.491675 21.27016,3.474637 -15.69595,14.76923 z" />
        <path
           sodipodi:type="star"
           style="fill:#ffffff;fill-opacity:1;stroke:#010000;stroke-width:0.017"
           id="path1108"
           sodipodi:sides="5"
           sodipodi:cx="116.42268"
           sodipodi:cy="110.16115"
           sodipodi:r1="32.454773"
           sodipodi:r2="16.227386"
           sodipodi:arg1="0.96010635"
           sodipodi:arg2="1.5884249"
           inkscape:flatsided="false"
           inkscape:rounded="0"
           inkscape:randomized="0"
           inkscape:transform-center-x="-0.037213004"
           inkscape:transform-center-y="-0.6448298"
           transform="matrix(0.21049365,0,0,0.22003785,180.02445,80.445007)"
           d="m 135.03332,136.7498 -18.89669,-10.36379 -19.250259,9.69125 4.017159,-21.1744 -15.165585,-15.31333 21.379425,-2.72271 9.87741,-19.155402 9.19606,19.491675 21.27016,3.474637 -15.69595,14.76923 z" />
        <path
           sodipodi:type="star"
           style="fill:#ffffff;fill-opacity:1;stroke:#010000;stroke-width:0.017"
           id="path1110"
           sodipodi:sides="5"
           sodipodi:cx="116.42268"
           sodipodi:cy="110.16115"
           sodipodi:r1="32.454773"
           sodipodi:r2="16.227386"
           sodipodi:arg1="0.96010635"
           sodipodi:arg2="1.5884249"
           inkscape:flatsided="false"
           inkscape:rounded="0"
           inkscape:randomized="0"
           inkscape:transform-center-x="-0.037213004"
           inkscape:transform-center-y="-0.6448298"
           transform="matrix(0.21049365,0,0,0.22003785,135.74729,80.445007)"
           d="m 135.03332,136.7498 -18.89669,-10.36379 -19.250259,9.69125 4.017159,-21.1744 -15.165585,-15.31333 21.379425,-2.72271 9.87741,-19.155402 9.19606,19.491675 21.27016,3.474637 -15.69595,14.76923 z" />
        <path
           sodipodi:type="star"
           style="fill:#ffffff;fill-opacity:1;stroke:#010000;stroke-width:0.017"
           id="path1112"
           sodipodi:sides="5"
           sodipodi:cx="116.42268"
           sodipodi:cy="110.16115"
           sodipodi:r1="32.454773"
           sodipodi:r2="16.227386"
           sodipodi:arg1="0.96010635"
           sodipodi:arg2="1.5884249"
           inkscape:flatsided="false"
           inkscape:rounded="0"
           inkscape:randomized="0"
           inkscape:transform-center-x="-0.037213004"
           inkscape:transform-center-y="-0.6448298"
           transform="matrix(0.21049365,0,0,0.22003785,289.29828,103.06176)"
           d="m 135.03332,136.7498 -18.89669,-10.36379 -19.250259,9.69125 4.017159,-21.1744 -15.165585,-15.31333 21.379425,-2.72271 9.87741,-19.155402 9.19606,19.491675 21.27016,3.474637 -15.69595,14.76923 z" />
        <path
           sodipodi:type="star"
           style="fill:#ffffff;fill-opacity:1;stroke:#010000;stroke-width:0.017"
           id="path1114"
           sodipodi:sides="5"
           sodipodi:cx="116.42268"
           sodipodi:cy="110.16115"
           sodipodi:r1="32.454773"
           sodipodi:r2="16.227386"
           sodipodi:arg1="0.96010635"
           sodipodi:arg2="1.5884249"
           inkscape:flatsided="false"
           inkscape:rounded="0"
           inkscape:randomized="0"
           inkscape:transform-center-x="-0.037213004"
           inkscape:transform-center-y="-0.6448298"
           transform="matrix(0.21049365,0,0,0.22003785,245.02112,103.06176)"
           d="m 135.03332,136.7498 -18.89669,-10.36379 -19.250259,9.69125 4.017159,-21.1744 -15.165585,-15.31333 21.379425,-2.72271 9.87741,-19.155402 9.19606,19.491675 21.27016,3.474637 -15.69595,14.76923 z" />
        <path
           sodipodi:type="star"
           style="fill:#ffffff;fill-opacity:1;stroke:#010000;stroke-width:0.017"
           id="path1116"
           sodipodi:sides="5"
           sodipodi:cx="116.42268"
           sodipodi:cy="110.16115"
           sodipodi:r1="32.454773"
           sodipodi:r2="16.227386"
           sodipodi:arg1="0.96010635"
           sodipodi:arg2="1.5884249"
           inkscape:flatsided="false"
           inkscape:rounded="0"
           inkscape:randomized="0"
           inkscape:transform-center-x="-0.037213004"
           inkscape:transform-center-y="-0.6448298"
           transform="matrix(0.21049365,0,0,0.22003785,200.74395,103.06176)"
           d="m 135.03332,136.7498 -18.89669,-10.36379 -19.250259,9.69125 4.017159,-21.1744 -15.165585,-15.31333 21.379425,-2.72271 9.87741,-19.155402 9.19606,19.491675 21.27016,3.474637 -15.69595,14.76923 z" />
        <path
           sodipodi:type="star"
           style="fill:#ffffff;fill-opacity:1;stroke:#010000;stroke-width:0.017"
           id="path1118"
           sodipodi:sides="5"
           sodipodi:cx="116.42268"
           sodipodi:cy="110.16115"
           sodipodi:r1="32.454773"
           sodipodi:r2="16.227386"
           sodipodi:arg1="0.96010635"
           sodipodi:arg2="1.5884249"
           inkscape:flatsided="false"
           inkscape:rounded="0"
           inkscape:randomized="0"
           inkscape:transform-center-x="-0.037213004"
           inkscape:transform-center-y="-0.6448298"
           transform="matrix(0.21049365,0,0,0.22003785,156.46676,103.06176)"
           d="m 135.03332,136.7498 -18.89669,-10.36379 -19.250259,9.69125 4.017159,-21.1744 -15.165585,-15.31333 21.379425,-2.72271 9.87741,-19.155402 9.19606,19.491675 21.27016,3.474637 -15.69595,14.76923 z" />
        <path
           sodipodi:type="star"
           style="fill:#ffffff;fill-opacity:1;stroke:#010000;stroke-width:0.017"
           id="path1120"
           sodipodi:sides="5"
           sodipodi:cx="116.42268"
           sodipodi:cy="110.16115"
           sodipodi:r1="32.454773"
           sodipodi:r2="16.227386"
           sodipodi:arg1="0.96010635"
           sodipodi:arg2="1.5884249"
           inkscape:flatsided="false"
           inkscape:rounded="0"
           inkscape:randomized="0"
           inkscape:transform-center-x="-0.037213004"
           inkscape:transform-center-y="-0.6448298"
           transform="matrix(0.21049365,0,0,0.22003785,112.1896,103.06176)"
           d="m 135.03332,136.7498 -18.89669,-10.36379 -19.250259,9.69125 4.017159,-21.1744 -15.165585,-15.31333 21.379425,-2.72271 9.87741,-19.155402 9.19606,19.491675 21.27016,3.474637 -15.69595,14.76923 z" />
      </g>
      <g
         id="g1155"
         transform="translate(-0.54745966,161.86433)">
        <path
           sodipodi:type="star"
           style="fill:#ffffff;fill-opacity:1;stroke:#010000;stroke-width:0.017"
           id="path1143"
           sodipodi:sides="5"
           sodipodi:cx="116.42268"
           sodipodi:cy="110.16115"
           sodipodi:r1="32.454773"
           sodipodi:r2="16.227386"
           sodipodi:arg1="0.96010635"
           sodipodi:arg2="1.5884249"
           inkscape:flatsided="false"
           inkscape:rounded="0"
           inkscape:randomized="0"
           inkscape:transform-center-x="-0.037213004"
           inkscape:transform-center-y="-0.6448298"
           transform="matrix(0.21049365,0,0,0.22003785,92.017573,74.705279)"
           d="m 135.03332,136.7498 -18.89669,-10.36379 -19.250259,9.69125 4.017159,-21.1744 -15.165585,-15.31333 21.379425,-2.72271 9.87741,-19.155402 9.19606,19.491675 21.27016,3.474637 -15.69595,14.76923 z" />
        <path
           sodipodi:type="star"
           style="fill:#ffffff;fill-opacity:1;stroke:#010000;stroke-width:0.017"
           id="path1145"
           sodipodi:sides="5"
           sodipodi:cx="116.42268"
           sodipodi:cy="110.16115"
           sodipodi:r1="32.454773"
           sodipodi:r2="16.227386"
           sodipodi:arg1="0.96010635"
           sodipodi:arg2="1.5884249"
           inkscape:flatsided="false"
           inkscape:rounded="0"
           inkscape:randomized="0"
           inkscape:transform-center-x="-0.037213004"
           inkscape:transform-center-y="-0.6448298"
           transform="matrix(0.21049365,0,0,0.22003785,313.40343,74.705279)"
           d="m 135.03332,136.7498 -18.89669,-10.36379 -19.250259,9.69125 4.017159,-21.1744 -15.165585,-15.31333 21.379425,-2.72271 9.87741,-19.155402 9.19606,19.491675 21.27016,3.474637 -15.69595,14.76923 z" />
        <path
           sodipodi:type="star"
           style="fill:#ffffff;fill-opacity:1;stroke:#010000;stroke-width:0.017"
           id="path1147"
           sodipodi:sides="5"
           sodipodi:cx="116.42268"
           sodipodi:cy="110.16115"
           sodipodi:r1="32.454773"
           sodipodi:r2="16.227386"
           sodipodi:arg1="0.96010635"
           sodipodi:arg2="1.5884249"
           inkscape:flatsided="false"
           inkscape:rounded="0"
           inkscape:randomized="0"
           inkscape:transform-center-x="-0.037213004"
           inkscape:transform-center-y="-0.6448298"
           transform="matrix(0.21049365,0,0,0.22003785,269.12627,74.705279)"
           d="m 135.03332,136.7498 -18.89669,-10.36379 -19.250259,9.69125 4.017159,-21.1744 -15.165585,-15.31333 21.379425,-2.72271 9.87741,-19.155402 9.19606,19.491675 21.27016,3.474637 -15.69595,14.76923 z" />
        <path
           sodipodi:type="star"
           style="fill:#ffffff;fill-opacity:1;stroke:#010000;stroke-width:0.017"
           id="path1149"
           sodipodi:sides="5"
           sodipodi:cx="116.42268"
           sodipodi:cy="110.16115"
           sodipodi:r1="32.454773"
           sodipodi:r2="16.227386"
           sodipodi:arg1="0.96010635"
           sodipodi:arg2="1.5884249"
           inkscape:flatsided="false"
           inkscape:rounded="0"
           inkscape:randomized="0"
           inkscape:transform-center-x="-0.037213004"
           inkscape:transform-center-y="-0.6448298"
           transform="matrix(0.21049365,0,0,0.22003785,224.8491,74.705279)"
           d="m 135.03332,136.7498 -18.89669,-10.36379 -19.250259,9.69125 4.017159,-21.1744 -15.165585,-15.31333 21.379425,-2.72271 9.87741,-19.155402 9.19606,19.491675 21.27016,3.474637 -15.69595,14.76923 z" />
        <path
           sodipodi:type="star"
           style="fill:#ffffff;fill-opacity:1;stroke:#010000;stroke-width:0.017"
           id="path1151"
           sodipodi:sides="5"
           sodipodi:cx="116.42268"
           sodipodi:cy="110.16115"
           sodipodi:r1="32.454773"
           sodipodi:r2="16.227386"
           sodipodi:arg1="0.96010635"
           sodipodi:arg2="1.5884249"
           inkscape:flatsided="false"
           inkscape:rounded="0"
           inkscape:randomized="0"
           inkscape:transform-center-x="-0.037213004"
           inkscape:transform-center-y="-0.6448298"
           transform="matrix(0.21049365,0,0,0.22003785,180.57191,74.705279)"
           d="m 135.03332,136.7498 -18.89669,-10.36379 -19.250259,9.69125 4.017159,-21.1744 -15.165585,-15.31333 21.379425,-2.72271 9.87741,-19.155402 9.19606,19.491675 21.27016,3.474637 -15.69595,14.76923 z" />
        <path
           sodipodi:type="star"
           style="fill:#ffffff;fill-opacity:1;stroke:#010000;stroke-width:0.017"
           id="path1153"
           sodipodi:sides="5"
           sodipodi:cx="116.42268"
           sodipodi:cy="110.16115"
           sodipodi:r1="32.454773"
           sodipodi:r2="16.227386"
           sodipodi:arg1="0.96010635"
           sodipodi:arg2="1.5884249"
           inkscape:flatsided="false"
           inkscape:rounded="0"
           inkscape:randomized="0"
           inkscape:transform-center-x="-0.037213004"
           inkscape:transform-center-y="-0.6448298"
           transform="matrix(0.21049365,0,0,0.22003785,136.29475,74.705279)"
           d="m 135.03332,136.7498 -18.89669,-10.36379 -19.250259,9.69125 4.017159,-21.1744 -15.165585,-15.31333 21.379425,-2.72271 9.87741,-19.155402 9.19606,19.491675 21.27016,3.474637 -15.69595,14.76923 z" />
      </g>
    </g>
  </g>
</svg>
