<?xml version="1.0" encoding="UTF-8" standalone="no"?>
<svg
   xmlns:dc="http://purl.org/dc/elements/1.1/"
   xmlns:cc="http://creativecommons.org/ns#"
   xmlns:rdf="http://www.w3.org/1999/02/22-rdf-syntax-ns#"
   xmlns:svg="http://www.w3.org/2000/svg"
   xmlns="http://www.w3.org/2000/svg"
   xmlns:sodipodi="http://sodipodi.sourceforge.net/DTD/sodipodi-0.dtd"
   xmlns:inkscape="http://www.inkscape.org/namespaces/inkscape"
   version="1.1"
   id="svg2"
   width="60"
   height="60"
   viewBox="0 0 60 60"
   sodipodi:docname="pt_br.svg"
   inkscape:version="1.0.2 (e86c870879, 2021-01-15)"
   inkscape:export-filename="/home/ilink/Projects/cassulo/resources/images/pt_br.png"
   inkscape:export-xdpi="96"
   inkscape:export-ydpi="96">
  <metadata
     id="metadata8">
    <rdf:RDF>
      <cc:Work
         rdf:about="">
        <dc:format>image/svg+xml</dc:format>
        <dc:type
           rdf:resource="http://purl.org/dc/dcmitype/StillImage" />
        <dc:title></dc:title>
      </cc:Work>
    </rdf:RDF>
  </metadata>
  <defs
     id="defs6" />
  <sodipodi:namedview
     pagecolor="#ffffff"
     bordercolor="#666666"
     borderopacity="1"
     objecttolerance="10"
     gridtolerance="10"
     guidetolerance="10"
     inkscape:pageopacity="0"
     inkscape:pageshadow="2"
     inkscape:window-width="1280"
     inkscape:window-height="736"
     id="namedview4"
     showgrid="false"
     inkscape:zoom="8.2833333"
     inkscape:cx="22.931298"
     inkscape:cy="28.361916"
     inkscape:window-x="0"
     inkscape:window-y="0"
     inkscape:window-maximized="1"
     inkscape:current-layer="g1435"
     inkscape:document-rotation="0" />
  <g
     inkscape:groupmode="layer"
     inkscape:label="Image"
     id="g10">
    <rect
       style="fill:#fedf00;fill-opacity:1;stroke:#00ff00;stroke-width:0;stroke-miterlimit:4;stroke-dasharray:none"
       id="rect847"
       width="12.63588"
       height="0.33028656"
       x="697.39233"
       y="79.874947" />
    <g
       id="g1435"
       transform="matrix(1.1755479,0,0,1.1755479,-44.940262,96.827987)">
      <g
         id="g943"
         transform="matrix(0.12222222,0,0,0.11248263,32.460332,-70.895661)"
         inkscape:export-xdpi="96"
         inkscape:export-ydpi="96">
        <rect
           style="fill:#009b3a;fill-opacity:1;stroke:#00ff00;stroke-width:0;stroke-miterlimit:4;stroke-dasharray:none"
           id="rect837"
           width="382.80023"
           height="257.13022"
           x="64.599884"
           y="6.8372955" />
        <g
           id="g1378"
           transform="translate(438.90545,8.667952)">
          <rect
             style="fill:#fedf00;fill-opacity:1;stroke:#00ff00;stroke-width:0;stroke-miterlimit:4;stroke-dasharray:none"
             id="rect839"
             width="161.82726"
             height="160.37997"
             x="-67.049568"
             y="148.03386"
             transform="matrix(0.84231835,0.53898033,-0.8525989,0.52256589,0,0)" />
          <g
             id="g1048">
            <circle
               style="fill:#002776;fill-opacity:1;stroke:#00ff00;stroke-width:0;stroke-miterlimit:4;stroke-dasharray:none"
               id="path849"
               cx="-182.01207"
               cy="126.19313"
               r="60" />
            <path
               id="path853"
               style="fill:#ffffff;fill-opacity:1;stroke:#ffffff;stroke-width:0;stroke-miterlimit:4;stroke-dasharray:none;stroke-opacity:1"
               d="m -202.24394,94.107538 a 60.743123,29.731839 13.317968 0 0 -39.42032,18.617222 60.743123,29.731839 13.317968 0 0 -0.0933,5.46068 60.743123,29.731839 13.317968 0 1 63.51797,-11.36256 60.743123,29.731839 13.317968 0 1 53.41752,37.21643 60.743123,29.731839 13.317968 0 0 1.58204,-4.27222 60.743123,29.731839 13.317968 0 0 -53.3223,-42.677122 60.743123,29.731839 13.317968 0 0 -25.68162,-2.98243 z" />
            <path
               sodipodi:type="star"
               style="fill:#ffffff;fill-opacity:1;stroke:#ffffff;stroke-width:0;stroke-miterlimit:4;stroke-dasharray:none;stroke-opacity:1"
               id="path864"
               sodipodi:sides="5"
               sodipodi:cx="-160.96513"
               sodipodi:cy="99.475769"
               sodipodi:r1="1.2288491"
               sodipodi:r2="0.61442453"
               sodipodi:arg1="-0.034760429"
               sodipodi:arg2="0.5935581"
               inkscape:flatsided="false"
               inkscape:rounded="0"
               inkscape:randomized="0"
               inkscape:transform-center-x="-0.10472881"
               inkscape:transform-center-y="-0.013201158"
               d="m -159.73703,99.433062 -0.71877,0.386363 -0.0892,0.811145 -0.58957,-0.5642 -0.79901,0.16581 0.3544,-0.735058 -0.40461,-0.708666 0.80861,0.109912 0.54895,-0.603795 0.14533,0.802989 z" />
            <path
               sodipodi:type="star"
               style="fill:#ffffff;fill-opacity:1;stroke:#ffffff;stroke-width:0;stroke-miterlimit:4;stroke-dasharray:none;stroke-opacity:1"
               id="path866"
               sodipodi:sides="5"
               sodipodi:cx="-233.97525"
               sodipodi:cy="117.87689"
               sodipodi:r1="1.3383627"
               sodipodi:r2="0.66918129"
               sodipodi:arg1="-0.034760429"
               sodipodi:arg2="0.5935581"
               inkscape:flatsided="false"
               inkscape:rounded="0"
               inkscape:randomized="0"
               inkscape:transform-center-x="-0.11405456"
               inkscape:transform-center-y="-0.01438199"
               d="m -232.6377,117.83038 -0.78283,0.42079 -0.0972,0.88344 -0.64211,-0.61449 -0.87021,0.1806 0.38598,-0.80057 -0.44066,-0.77182 0.88066,0.1197 0.59787,-0.6576 0.15829,0.87455 z" />
            <g
               id="g917"
               transform="translate(28.743108,-0.68363141)">
              <g
                 id="g934"
                 transform="translate(-32.827824,2.6512947)">
                <path
                   sodipodi:type="star"
                   style="fill:#ffffff;fill-opacity:1;stroke:#ffffff;stroke-width:0;stroke-miterlimit:4;stroke-dasharray:none;stroke-opacity:1"
                   id="use902"
                   sodipodi:sides="5"
                   sodipodi:cx="-226.86292"
                   sodipodi:cy="131.88316"
                   sodipodi:r1="1.3383627"
                   sodipodi:r2="0.66918129"
                   sodipodi:arg1="-0.034760429"
                   sodipodi:arg2="0.5935581"
                   inkscape:flatsided="false"
                   inkscape:rounded="0"
                   inkscape:randomized="0"
                   inkscape:transform-center-x="-0.11405456"
                   inkscape:transform-center-y="-0.014373711"
                   d="m -225.52536,131.83665 -0.78283,0.4208 -0.0972,0.88343 -0.64211,-0.61449 -0.87022,0.1806 0.38599,-0.80057 -0.44067,-0.77182 0.88066,0.11971 0.59788,-0.65761 0.15829,0.87455 z" />
                <path
                   sodipodi:type="star"
                   style="fill:#ffffff;fill-opacity:1;stroke:#ffffff;stroke-width:0;stroke-miterlimit:4;stroke-dasharray:none;stroke-opacity:1"
                   id="use904"
                   sodipodi:sides="5"
                   sodipodi:cx="-222.32446"
                   sodipodi:cy="126.65362"
                   sodipodi:r1="0.95550436"
                   sodipodi:r2="0.47775224"
                   sodipodi:arg1="-0.034760429"
                   sodipodi:arg2="0.5935581"
                   inkscape:flatsided="false"
                   inkscape:rounded="0"
                   inkscape:randomized="0"
                   inkscape:transform-center-x="-0.081419274"
                   inkscape:transform-center-y="-0.010260869"
                   d="m -221.36954,126.62041 -0.55889,0.30042 -0.0694,0.63072 -0.45843,-0.43871 -0.62128,0.12894 0.27557,-0.57156 -0.3146,-0.55103 0.62873,0.0855 0.42684,-0.46948 0.11301,0.62437 z" />
                <path
                   sodipodi:type="star"
                   style="fill:#ffffff;fill-opacity:1;stroke:#ffffff;stroke-width:0;stroke-miterlimit:4;stroke-dasharray:none;stroke-opacity:1"
                   id="use906"
                   sodipodi:sides="5"
                   sodipodi:cx="-231.98479"
                   sodipodi:cy="137.41792"
                   sodipodi:r1="1.1195863"
                   sodipodi:r2="0.55979329"
                   sodipodi:arg1="-0.034760429"
                   sodipodi:arg2="0.5935581"
                   inkscape:flatsided="false"
                   inkscape:rounded="0"
                   inkscape:randomized="0"
                   inkscape:transform-center-x="-0.095401656"
                   inkscape:transform-center-y="-0.012027593"
                   d="m -230.86588,137.37901 -0.65486,0.35201 -0.0813,0.73903 -0.53715,-0.51404 -0.72796,0.15107 0.32289,-0.6697 -0.36863,-0.64566 0.7367,0.10014 0.50014,-0.55011 0.13242,0.73159 z" />
                <path
                   sodipodi:type="star"
                   style="fill:#ffffff;fill-opacity:1;stroke:#ffffff;stroke-width:0;stroke-miterlimit:4;stroke-dasharray:none;stroke-opacity:1"
                   id="use908"
                   sodipodi:sides="5"
                   sodipodi:cx="-216.41154"
                   sodipodi:cy="135.40253"
                   sodipodi:r1="1.1742805"
                   sodipodi:r2="0.58714038"
                   sodipodi:arg1="-0.034760429"
                   sodipodi:arg2="0.5935581"
                   inkscape:flatsided="false"
                   inkscape:rounded="0"
                   inkscape:randomized="0"
                   inkscape:transform-center-x="-0.10007226"
                   inkscape:transform-center-y="-0.012621893"
                   d="m -215.23797,135.36172 -0.68686,0.3692 -0.0853,0.77513 -0.56339,-0.53915 -0.76353,0.15845 0.33867,-0.70242 -0.38664,-0.67719 0.77269,0.10503 0.52458,-0.57699 0.13888,0.76733 z" />
                <path
                   sodipodi:type="star"
                   style="fill:#ffffff;fill-opacity:1;stroke:#ffffff;stroke-width:0;stroke-miterlimit:4;stroke-dasharray:none;stroke-opacity:1"
                   id="use910"
                   sodipodi:sides="5"
                   sodipodi:cx="-218.98744"
                   sodipodi:cy="142.28152"
                   sodipodi:r1="1.1742805"
                   sodipodi:r2="0.58714038"
                   sodipodi:arg1="-0.034760429"
                   sodipodi:arg2="0.5935581"
                   inkscape:flatsided="false"
                   inkscape:rounded="0"
                   inkscape:randomized="0"
                   inkscape:transform-center-x="-0.100057"
                   inkscape:transform-center-y="-0.012621893"
                   d="m -217.81387,142.24071 -0.68686,0.36921 -0.0853,0.77513 -0.56338,-0.53915 -0.76353,0.15845 0.33866,-0.70242 -0.38664,-0.6772 0.77269,0.10503 0.52458,-0.57698 0.13888,0.76733 z" />
              </g>
            </g>
            <g
               id="g942"
               transform="matrix(1.2274769,0,0,1.2048792,48.263543,-21.679818)">
              <path
                 sodipodi:type="star"
                 style="fill:#ffffff;fill-opacity:1;stroke:#ffffff;stroke-width:0;stroke-miterlimit:4;stroke-dasharray:none;stroke-opacity:1"
                 id="path936"
                 sodipodi:sides="5"
                 sodipodi:cx="-211.84949"
                 sodipodi:cy="120.60523"
                 sodipodi:r1="1.1742806"
                 sodipodi:r2="0.58714026"
                 sodipodi:arg1="-0.034760429"
                 sodipodi:arg2="0.5935581"
                 inkscape:flatsided="false"
                 inkscape:rounded="0"
                 inkscape:randomized="0"
                 inkscape:transform-center-x="-0.10008625"
                 inkscape:transform-center-y="-0.012607142"
                 d="m -210.67592,120.56442 -0.68685,0.36921 -0.0853,0.77512 -0.56339,-0.53915 -0.76353,0.15846 0.33867,-0.70242 -0.38664,-0.6772 0.77269,0.10503 0.52457,-0.57698 0.13889,0.76733 z" />
              <path
                 sodipodi:type="star"
                 style="fill:#ffffff;fill-opacity:1;stroke:#ffffff;stroke-width:0;stroke-miterlimit:4;stroke-dasharray:none;stroke-opacity:1"
                 id="path938"
                 sodipodi:sides="5"
                 sodipodi:cx="-173.25581"
                 sodipodi:cy="112.82614"
                 sodipodi:r1="1.3383627"
                 sodipodi:r2="0.66918123"
                 sodipodi:arg1="-0.034760429"
                 sodipodi:arg2="0.5935581"
                 inkscape:flatsided="false"
                 inkscape:rounded="0"
                 inkscape:randomized="0"
                 inkscape:transform-center-x="-0.11408652"
                 inkscape:transform-center-y="-0.014365395"
                 d="m -171.91826,112.77963 -0.78283,0.42079 -0.0972,0.88344 -0.64211,-0.61449 -0.87022,0.1806 0.38599,-0.80057 -0.44067,-0.77182 0.88066,0.1197 0.59788,-0.6576 0.15829,0.87455 z" />
            </g>
            <g
               id="g959"
               transform="translate(-0.65659915,4.5613367)">
              <path
                 sodipodi:type="star"
                 style="fill:#ffffff;fill-opacity:1;stroke:#ffffff;stroke-width:0;stroke-miterlimit:4;stroke-dasharray:none;stroke-opacity:1"
                 id="path944"
                 sodipodi:sides="5"
                 sodipodi:cx="-187.39262"
                 sodipodi:cy="120.81786"
                 sodipodi:r1="1.2289747"
                 sodipodi:r2="0.61448729"
                 sodipodi:arg1="-0.034760429"
                 sodipodi:arg2="0.5935581"
                 inkscape:flatsided="false"
                 inkscape:rounded="0"
                 inkscape:randomized="0"
                 inkscape:transform-center-x="-0.10472728"
                 inkscape:transform-center-y="-0.013200965"
                 d="m -186.16439,120.77515 -0.71885,0.3864 -0.0892,0.81123 -0.58963,-0.56426 -0.79909,0.16583 0.35444,-0.73513 -0.40465,-0.70874 0.80868,0.10992 0.54901,-0.60385 0.14535,0.80307 z" />
              <path
                 sodipodi:type="star"
                 style="fill:#ffffff;fill-opacity:1;stroke:#ffffff;stroke-width:0;stroke-miterlimit:4;stroke-dasharray:none;stroke-opacity:1"
                 id="path946"
                 sodipodi:sides="5"
                 sodipodi:cx="-180.86008"
                 sodipodi:cy="126.23072"
                 sodipodi:r1="1.2289747"
                 sodipodi:r2="0.61448729"
                 sodipodi:arg1="-0.034760429"
                 sodipodi:arg2="0.5935581"
                 inkscape:flatsided="false"
                 inkscape:rounded="0"
                 inkscape:randomized="0"
                 inkscape:transform-center-x="-0.10472728"
                 inkscape:transform-center-y="-0.013200965"
                 d="m -179.63184,126.18801 -0.71885,0.3864 -0.0892,0.81123 -0.58963,-0.56426 -0.79909,0.16583 0.35444,-0.73513 -0.40465,-0.70874 0.80868,0.10992 0.54901,-0.60386 0.14535,0.80308 z" />
              <path
                 sodipodi:type="star"
                 style="fill:#ffffff;fill-opacity:1;stroke:#ffffff;stroke-width:0;stroke-miterlimit:4;stroke-dasharray:none;stroke-opacity:1"
                 id="path948"
                 sodipodi:sides="5"
                 sodipodi:cx="-186.21516"
                 sodipodi:cy="136.54688"
                 sodipodi:r1="1.3930568"
                 sodipodi:r2="0.69652826"
                 sodipodi:arg1="-0.034760429"
                 sodipodi:arg2="0.5935581"
                 inkscape:flatsided="false"
                 inkscape:rounded="0"
                 inkscape:randomized="0"
                 inkscape:transform-center-x="-0.11869362"
                 inkscape:transform-center-y="-0.014952178"
                 d="m -184.82295,136.49846 -0.81482,0.43799 -0.10113,0.91954 -0.66835,-0.6396 -0.90578,0.18798 0.40176,-0.83329 -0.45868,-0.80336 0.91665,0.1246 0.62231,-0.68448 0.16476,0.91029 z" />
              <path
                 sodipodi:type="star"
                 style="fill:#ffffff;fill-opacity:1;stroke:#ffffff;stroke-width:0;stroke-miterlimit:4;stroke-dasharray:none;stroke-opacity:1"
                 id="path950"
                 sodipodi:sides="5"
                 sodipodi:cx="-188.61311"
                 sodipodi:cy="129.62787"
                 sodipodi:r1="0.95550436"
                 sodipodi:r2="0.47775218"
                 sodipodi:arg1="-0.034760429"
                 sodipodi:arg2="0.5935581"
                 inkscape:flatsided="false"
                 inkscape:rounded="0"
                 inkscape:randomized="0"
                 inkscape:transform-center-x="-0.081403346"
                 inkscape:transform-center-y="-0.010260723"
                 d="m -187.65819,129.59466 -0.55889,0.30042 -0.0694,0.63072 -0.45843,-0.43871 -0.62128,0.12894 0.27557,-0.57156 -0.3146,-0.55103 0.62873,0.0855 0.42684,-0.46948 0.11301,0.62437 z" />
              <path
                 sodipodi:type="star"
                 style="fill:#ffffff;fill-opacity:1;stroke:#ffffff;stroke-width:0;stroke-miterlimit:4;stroke-dasharray:none;stroke-opacity:1"
                 id="path952"
                 sodipodi:sides="5"
                 sodipodi:cx="-193.10245"
                 sodipodi:cy="126.96357"
                 sodipodi:r1="1.1195866"
                 sodipodi:r2="0.55979323"
                 sodipodi:arg1="-0.034760429"
                 sodipodi:arg2="0.5935581"
                 inkscape:flatsided="false"
                 inkscape:rounded="0"
                 inkscape:randomized="0"
                 inkscape:transform-center-x="-0.095400577"
                 inkscape:transform-center-y="-0.012027895"
                 d="m -191.98354,126.92466 -0.65486,0.35201 -0.0813,0.73902 -0.53715,-0.51404 -0.72796,0.15108 0.32289,-0.66971 -0.36864,-0.64565 0.73671,0.10014 0.50014,-0.55011 0.13242,0.73159 z" />
            </g>
            <path
               sodipodi:type="star"
               style="fill:#ffffff;fill-opacity:1;stroke:#ffffff;stroke-width:0;stroke-miterlimit:4;stroke-dasharray:none;stroke-opacity:1"
               id="path961"
               sodipodi:sides="5"
               sodipodi:cx="-213.34789"
               sodipodi:cy="147.61794"
               sodipodi:r1="1.4477509"
               sodipodi:r2="0.7238754"
               sodipodi:arg1="-0.034760429"
               sodipodi:arg2="0.5935581"
               inkscape:flatsided="false"
               inkscape:rounded="0"
               inkscape:randomized="0"
               inkscape:transform-center-x="-0.12338185"
               inkscape:transform-center-y="-0.015531711"
               d="m -211.90101,147.56762 -0.84681,0.45519 -0.1051,0.95564 -0.69459,-0.66471 -0.94135,0.19535 0.41754,-0.866 -0.47669,-0.8349 0.95264,0.12949 0.64674,-0.71135 0.17123,0.94603 z" />
            <path
               sodipodi:type="star"
               style="fill:#ffffff;fill-opacity:1;stroke:#ffffff;stroke-width:0;stroke-miterlimit:4;stroke-dasharray:none;stroke-opacity:1"
               id="path963"
               sodipodi:sides="5"
               sodipodi:cx="-192.07246"
               sodipodi:cy="174.85522"
               sodipodi:r1="0.73672807"
               sodipodi:r2="0.36836407"
               sodipodi:arg1="-0.034760429"
               sodipodi:arg2="0.5935581"
               inkscape:flatsided="false"
               inkscape:rounded="0"
               inkscape:randomized="0"
               inkscape:transform-center-x="-0.062800614"
               inkscape:transform-center-y="-0.0079204597"
               d="m -191.33618,174.82962 -0.43093,0.23164 -0.0535,0.4863 -0.35346,-0.33826 -0.47903,0.0994 0.21247,-0.44068 -0.24257,-0.42487 0.48478,0.0659 0.32911,-0.36199 0.0871,0.48141 z" />
            <g
               id="g974">
              <path
                 sodipodi:type="star"
                 style="fill:#ffffff;fill-opacity:1;stroke:#ffffff;stroke-width:0;stroke-miterlimit:4;stroke-dasharray:none;stroke-opacity:1"
                 id="path965"
                 sodipodi:sides="5"
                 sodipodi:cx="-178.97031"
                 sodipodi:cy="149.67181"
                 sodipodi:r1="1.3383628"
                 sodipodi:r2="0.66918135"
                 sodipodi:arg1="-0.034760429"
                 sodipodi:arg2="0.5935581"
                 inkscape:flatsided="false"
                 inkscape:rounded="0"
                 inkscape:randomized="0"
                 inkscape:transform-center-x="-0.11405422"
                 inkscape:transform-center-y="-0.014360508"
                 d="m -177.63275,149.6253 -0.78283,0.4208 -0.0972,0.88343 -0.64211,-0.61448 -0.87022,0.18059 0.38599,-0.80057 -0.44067,-0.77182 0.88066,0.11971 0.59787,-0.65761 0.1583,0.87455 z" />
              <path
                 sodipodi:type="star"
                 style="fill:#ffffff;fill-opacity:1;stroke:#ffffff;stroke-width:0;stroke-miterlimit:4;stroke-dasharray:none;stroke-opacity:1"
                 id="path967"
                 sodipodi:sides="5"
                 sodipodi:cx="-174.68878"
                 sodipodi:cy="160.74901"
                 sodipodi:r1="1.6118331"
                 sodipodi:r2="0.80591649"
                 sodipodi:arg1="-0.034760429"
                 sodipodi:arg2="0.5935581"
                 inkscape:flatsided="false"
                 inkscape:rounded="0"
                 inkscape:randomized="0"
                 inkscape:transform-center-x="-0.13736534"
                 inkscape:transform-center-y="-0.017280336"
                 d="m -173.07792,160.69299 -0.94279,0.50678 -0.11701,1.06395 -0.77332,-0.74005 -1.04803,0.2175 0.46486,-0.96415 -0.53071,-0.92953 1.06061,0.14416 0.72004,-0.79197 0.19063,1.05325 z" />
              <path
                 sodipodi:type="star"
                 style="fill:#ffffff;fill-opacity:1;stroke:#ffffff;stroke-width:0;stroke-miterlimit:4;stroke-dasharray:none;stroke-opacity:1"
                 id="path969"
                 sodipodi:sides="5"
                 sodipodi:cx="-164.94748"
                 sodipodi:cy="152.62764"
                 sodipodi:r1="1.2836688"
                 sodipodi:r2="0.64183432"
                 sodipodi:arg1="-0.034760429"
                 sodipodi:arg2="0.5935581"
                 inkscape:flatsided="false"
                 inkscape:rounded="0"
                 inkscape:randomized="0"
                 inkscape:transform-center-x="-0.10939775"
                 inkscape:transform-center-y="-0.013781716"
                 d="m -163.66459,152.58303 -0.75084,0.4036 -0.0932,0.84733 -0.61587,-0.58938 -0.83466,0.17322 0.37021,-0.76785 -0.42265,-0.74028 0.84467,0.11481 0.57344,-0.63073 0.15182,0.83881 z" />
            </g>
            <g
               id="g1011">
              <path
                 sodipodi:type="star"
                 style="fill:#ffffff;fill-opacity:1;stroke:#ffffff;stroke-width:0;stroke-miterlimit:4;stroke-dasharray:none;stroke-opacity:1"
                 id="path976"
                 sodipodi:sides="5"
                 sodipodi:cx="-141.12668"
                 sodipodi:cy="143.83446"
                 sodipodi:r1="1.7759153"
                 sodipodi:r2="0.88795757"
                 sodipodi:arg1="-0.034760429"
                 sodipodi:arg2="0.5935581"
                 inkscape:flatsided="false"
                 inkscape:rounded="0"
                 inkscape:randomized="0"
                 inkscape:transform-center-x="-0.15134758"
                 inkscape:transform-center-y="-0.019029066"
                 d="m -139.35184,143.77274 -1.03876,0.55836 -0.12892,1.17226 -0.85204,-0.81538 -1.15472,0.23964 0.51218,-1.0623 -0.58473,-1.02416 1.16857,0.15885 0.79334,-0.8726 0.21004,1.16047 z" />
              <path
                 sodipodi:type="star"
                 style="fill:#ffffff;fill-opacity:1;stroke:#ffffff;stroke-width:0;stroke-miterlimit:4;stroke-dasharray:none;stroke-opacity:1"
                 id="path978"
                 sodipodi:sides="5"
                 sodipodi:cx="-137.36665"
                 sodipodi:cy="151.98364"
                 sodipodi:r1="1.4477509"
                 sodipodi:r2="0.7238754"
                 sodipodi:arg1="-0.034760429"
                 sodipodi:arg2="0.5935581"
                 inkscape:flatsided="false"
                 inkscape:rounded="0"
                 inkscape:randomized="0"
                 inkscape:transform-center-x="-0.12338185"
                 inkscape:transform-center-y="-0.015531711"
                 d="m -135.91978,151.93333 -0.84681,0.45519 -0.1051,0.95564 -0.69459,-0.66471 -0.94135,0.19535 0.41754,-0.866 -0.47669,-0.8349 0.95265,0.12949 0.64673,-0.71136 0.17123,0.94603 z" />
              <path
                 sodipodi:type="star"
                 style="fill:#ffffff;fill-opacity:1;stroke:#ffffff;stroke-width:0;stroke-miterlimit:4;stroke-dasharray:none;stroke-opacity:1"
                 id="path980"
                 sodipodi:sides="5"
                 sodipodi:cx="-144.31746"
                 sodipodi:cy="157.57957"
                 sodipodi:r1="1.2289747"
                 sodipodi:r2="0.61448729"
                 sodipodi:arg1="-0.034760429"
                 sodipodi:arg2="0.5935581"
                 inkscape:flatsided="false"
                 inkscape:rounded="0"
                 inkscape:randomized="0"
                 inkscape:transform-center-x="-0.1047277"
                 inkscape:transform-center-y="-0.013202544"
                 d="m -143.08923,157.53686 -0.71885,0.38641 -0.0892,0.81122 -0.58963,-0.56426 -0.79909,0.16584 0.35443,-0.73514 -0.40464,-0.70874 0.80868,0.10992 0.549,-0.60385 0.14536,0.80307 z" />
              <path
                 sodipodi:type="star"
                 style="fill:#ffffff;fill-opacity:1;stroke:#ffffff;stroke-width:0;stroke-miterlimit:4;stroke-dasharray:none;stroke-opacity:1"
                 id="path982"
                 sodipodi:sides="5"
                 sodipodi:cx="-149.3008"
                 sodipodi:cy="168.21742"
                 sodipodi:r1="1.2836688"
                 sodipodi:r2="0.64183432"
                 sodipodi:arg1="-0.034760429"
                 sodipodi:arg2="0.5935581"
                 inkscape:flatsided="false"
                 inkscape:rounded="0"
                 inkscape:randomized="0"
                 inkscape:transform-center-x="-0.10941301"
                 inkscape:transform-center-y="-0.013782291"
                 d="m -148.0179,168.17281 -0.75084,0.4036 -0.0932,0.84733 -0.61587,-0.58937 -0.83466,0.17321 0.37022,-0.76785 -0.42266,-0.74028 0.84467,0.11481 0.57344,-0.63073 0.15182,0.83881 z" />
              <path
                 sodipodi:type="star"
                 style="fill:#ffffff;fill-opacity:1;stroke:#ffffff;stroke-width:0;stroke-miterlimit:4;stroke-dasharray:none;stroke-opacity:1"
                 id="path984"
                 sodipodi:sides="5"
                 sodipodi:cx="-149.59375"
                 sodipodi:cy="162.38538"
                 sodipodi:r1="1.4477509"
                 sodipodi:r2="0.7238754"
                 sodipodi:arg1="-0.034760429"
                 sodipodi:arg2="0.5935581"
                 inkscape:flatsided="false"
                 inkscape:rounded="0"
                 inkscape:randomized="0"
                 inkscape:transform-center-x="-0.12338185"
                 inkscape:transform-center-y="-0.015531711"
                 d="m -148.14687,162.33506 -0.84682,0.45519 -0.1051,0.95564 -0.69459,-0.66471 -0.94134,0.19535 0.41753,-0.866 -0.47668,-0.8349 0.95264,0.12949 0.64674,-0.71135 0.17123,0.94603 z" />
              <path
                 sodipodi:type="star"
                 style="fill:#ffffff;fill-opacity:1;stroke:#ffffff;stroke-width:0;stroke-miterlimit:4;stroke-dasharray:none;stroke-opacity:1"
                 id="path986"
                 sodipodi:sides="5"
                 sodipodi:cx="-140.80666"
                 sodipodi:cy="154.81998"
                 sodipodi:r1="1.3930569"
                 sodipodi:r2="0.69652832"
                 sodipodi:arg1="-0.034760429"
                 sodipodi:arg2="0.5935581"
                 inkscape:flatsided="false"
                 inkscape:rounded="0"
                 inkscape:randomized="0"
                 inkscape:transform-center-x="-0.11871077"
                 inkscape:transform-center-y="-0.014938553"
                 d="m -139.41444,154.77156 -0.81482,0.43799 -0.10113,0.91954 -0.66835,-0.6396 -0.90579,0.18798 0.40177,-0.83329 -0.45868,-0.80336 0.91665,0.1246 0.62231,-0.68448 0.16476,0.91029 z" />
              <path
                 sodipodi:type="star"
                 style="fill:#ffffff;fill-opacity:1;stroke:#ffffff;stroke-width:0;stroke-miterlimit:4;stroke-dasharray:none;stroke-opacity:1"
                 id="path988"
                 sodipodi:sides="5"
                 sodipodi:cx="-131.87958"
                 sodipodi:cy="145.53323"
                 sodipodi:r1="1.1742806"
                 sodipodi:r2="0.58714026"
                 sodipodi:arg1="-0.034760429"
                 sodipodi:arg2="0.5935581"
                 inkscape:flatsided="false"
                 inkscape:rounded="0"
                 inkscape:randomized="0"
                 inkscape:transform-center-x="-0.10007317"
                 inkscape:transform-center-y="-0.012610115"
                 d="m -130.70601,145.49242 -0.68685,0.36921 -0.0852,0.77513 -0.56339,-0.53915 -0.76353,0.15845 0.33867,-0.70242 -0.38664,-0.6772 0.77269,0.10503 0.52457,-0.57698 0.13889,0.76733 z" />
              <path
                 sodipodi:type="star"
                 style="fill:#ffffff;fill-opacity:1;stroke:#ffffff;stroke-width:0;stroke-miterlimit:4;stroke-dasharray:none;stroke-opacity:1"
                 id="path990"
                 sodipodi:sides="5"
                 sodipodi:cx="-149.8167"
                 sodipodi:cy="157.38268"
                 sodipodi:r1="1.1195866"
                 sodipodi:r2="0.55979323"
                 sodipodi:arg1="-0.034760429"
                 sodipodi:arg2="0.5935581"
                 inkscape:flatsided="false"
                 inkscape:rounded="0"
                 inkscape:randomized="0"
                 inkscape:transform-center-x="-0.095413143"
                 inkscape:transform-center-y="-0.012016123"
                 d="m -148.69779,157.34377 -0.65486,0.35201 -0.0813,0.73902 -0.53714,-0.51404 -0.72797,0.15107 0.32289,-0.6697 -0.36863,-0.64566 0.7367,0.10014 0.50014,-0.55011 0.13242,0.7316 z" />
            </g>
          </g>
          <g
             id="g1213">
            <path
               d="m -231.3181,106.32756 q 0,0.86203 -0.30472,1.51157 -0.30471,0.64953 -0.87406,1.00236 -0.56532,0.35283 -1.29905,0.35283 -0.72572,0 -1.29506,-0.34882 -0.56934,-0.34882 -0.88208,-0.99435 -0.31275,-0.64953 -0.31675,-1.49151 v -0.28868 q 0,-0.86204 0.30873,-1.51558 0.31274,-0.65755 0.87807,-1.00637 0.56934,-0.35283 1.29906,-0.35283 0.72972,0 1.29505,0.35283 0.56934,0.34882 0.87808,1.00637 0.31273,0.65354 0.31273,1.51157 z m -1.21887,-0.26462 q 0,-0.91816 -0.32877,-1.39529 -0.32878,-0.47713 -0.93822,-0.47713 -0.60543,0 -0.9342,0.47311 -0.32878,0.46911 -0.33279,1.37926 v 0.28467 q 0,0.89411 0.32878,1.38728 0.32877,0.49316 0.94624,0.49316 0.60542,0 0.93019,-0.47312 0.32476,-0.47712 0.32877,-1.38727 z"
               id="path1054"
               style="font-weight:bold;font-size:10.6667px;line-height:1.25;font-family:Roboto;-inkscape-font-specification:'Roboto Bold';fill:#008000;stroke-width:0.769812" />
            <path
               d="m -226.89604,103.96093 h -0.90873 v 2.02657 h -1.14065 v -5.536 h 2.05699 q 0.98095,0 1.51326,0.43724 0.53231,0.43727 0.53231,1.23573 0,0.56653 -0.24715,0.94675 -0.24334,0.37641 -0.74142,0.60075 l 1.19769,2.26229 v 0.0532 h -1.2243 z m -0.90873,-0.92394 h 0.92014 q 0.42964,0 0.66539,-0.21671 0.23572,-0.22053 0.23572,-0.60456 0,-0.39162 -0.22433,-0.61594 -0.22052,-0.22434 -0.68058,-0.22434 h -0.91634 z"
               id="path1056"
               style="font-weight:bold;font-size:10.6667px;line-height:1.25;font-family:Roboto;-inkscape-font-specification:'Roboto Bold';fill:#008000;stroke-width:0.730017" />
            <path
               d="m -222.22399,103.775 v -5.593976 h 1.72123 q 0.73765,0 1.31781,0.334254 0.58398,0.330418 0.91056,0.945136 0.32656,0.610886 0.32656,1.390816 v 0.25741 q 0,0.77993 -0.32272,1.38696 -0.31889,0.60705 -0.90287,0.9413 -0.58399,0.33426 -1.31781,0.3381 z m 1.15262,-4.660368 v 3.734448 h 0.55709 q 0.67619,0 1.03349,-0.44184 0.35732,-0.44182 0.365,-1.26402 v -0.29584 q 0,-0.852919 -0.35347,-1.290913 -0.35346,-0.441835 -1.0335,-0.441835 z"
               id="path1058"
               style="font-weight:bold;font-size:10.6667px;line-height:1.25;font-family:Roboto;-inkscape-font-specification:'Roboto Bold';fill:#008000;stroke-width:0.737665" />
            <path
               d="m -212.06422,99.778438 h -2.18023 v 1.476212 h 2.55874 v 0.91222 H -215.38 v -5.511169 h 3.68673 v 0.919787 h -2.55118 v 1.31344 h 2.18023 z"
               id="path1060"
               style="font-weight:bold;font-size:10.6667px;line-height:1.25;font-family:Roboto;-inkscape-font-specification:'Roboto Bold';fill:#008000;stroke-width:0.726745" />
            <path
               d="m -206.94194,96.687394 1.3831,3.905206 1.37569,-3.905206 h 1.45706 v 5.384466 h -1.11314 v -1.47185 l 0.11095,-2.540617 -1.45337,4.012467 h -0.7618 l -1.44967,-4.008766 0.11095,2.536916 v 1.47185 h -1.10943 v -5.384466 z"
               id="path1062"
               style="font-weight:bold;font-size:10.6667px;line-height:1.25;font-family:Roboto;-inkscape-font-specification:'Roboto Bold';fill:#008000;stroke-width:0.710034" />
            <path
               d="m -189.05729,99.893667 h -2.26901 v 1.536303 h 2.66293 v 0.94936 h -3.84471 v -5.735547 h 3.83682 v 0.957235 h -2.65504 v 1.366919 h 2.26901 z"
               id="path1064"
               style="font-weight:bold;font-size:10.6667px;line-height:1.25;font-family:Roboto;-inkscape-font-specification:'Roboto Bold';fill:#008000;stroke-width:0.756333" />
            <path
               d="m -178.97276,102.45048 v 1.96442 h -1.14879 v -5.575443 h 2.17504 q 0.628,0 1.10283,0.229762 0.47866,0.229755 0.73523,0.65481 0.25655,0.421211 0.25655,0.961141 0,0.81948 -0.5629,1.29431 -0.55908,0.471 -1.55086,0.471 z m 0,-0.93052 h 1.02625 q 0.45568,0 0.69309,-0.21444 0.24125,-0.21444 0.24125,-0.61268 0,-0.40974 -0.24125,-0.66247 -0.24124,-0.252733 -0.66629,-0.260403 h -1.05305 z"
               id="path1066"
               style="font-weight:bold;font-size:10.6667px;line-height:1.25;font-family:Roboto;-inkscape-font-specification:'Roboto Bold';fill:#008000;stroke-width:0.73522" />
            <path
               d="m -170.99123,104.09815 h -0.90241 v 2.0125 h -1.13273 v -5.49755 h 2.0427 q 0.97415,0 1.50276,0.43421 0.52861,0.43422 0.52861,1.22714 0,0.56259 -0.24543,0.94017 -0.24165,0.3738 -0.73627,0.59658 l 1.18937,2.24658 v 0.0528 h -1.21581 z m -0.90241,-0.91752 h 0.91373 q 0.42667,0 0.66077,-0.21521 0.2341,-0.219 0.2341,-0.60035 0,-0.38891 -0.22277,-0.61168 -0.219,-0.22278 -0.67586,-0.22278 h -0.90997 z"
               id="path1068"
               style="font-weight:bold;font-size:10.6667px;line-height:1.25;font-family:Roboto;-inkscape-font-specification:'Roboto Bold';fill:#008000;stroke-width:0.724948" />
            <path
               d="m -160.54115,106.1548 q 0,0.91193 -0.32237,1.59907 -0.32235,0.68713 -0.92466,1.06038 -0.59806,0.37326 -1.37426,0.37326 -0.76772,0 -1.37003,-0.36901 -0.6023,-0.36902 -0.93314,-1.05191 -0.33085,-0.68713 -0.33509,-1.57786 v -0.30539 q 0,-0.91194 0.32661,-1.60331 0.33084,-0.69562 0.92889,-1.06464 0.60231,-0.37325 1.37428,-0.37325 0.77196,0 1.37002,0.37325 0.6023,0.36902 0.9289,1.06464 0.33085,0.69137 0.33085,1.59907 z m -1.28945,-0.27994 q 0,-0.97132 -0.3478,-1.47607 -0.34781,-0.50475 -0.99252,-0.50475 -0.64048,0 -0.98829,0.5005 -0.3478,0.49627 -0.35205,1.45911 v 0.30115 q 0,0.94587 0.34781,1.46758 0.34781,0.52171 1.00101,0.52171 0.64047,0 0.98404,-0.5005 0.34357,-0.50474 0.3478,-1.46759 z"
               id="path1070"
               style="font-weight:bold;font-size:10.6667px;line-height:1.25;font-family:Roboto;-inkscape-font-specification:'Roboto Bold';fill:#008000;stroke-width:0.814377" />
            <path
               d="m -153.17447,111.34356 q -0.31819,0.38105 -0.89958,0.59317 -0.58138,0.2082 -1.28848,0.2082 -0.74244,0 -1.30419,-0.32212 -0.55782,-0.32605 -0.86423,-0.94279 -0.30248,-0.61674 -0.31033,-1.44954 v -0.38891 q 0,-0.85637 0.28676,-1.48097 0.2907,-0.62852 0.8328,-0.95849 0.54604,-0.33391 1.2767,-0.33391 1.01743,0 1.59096,0.48711 0.57353,0.48318 0.67959,1.41025 h -1.14706 q -0.0785,-0.49103 -0.34962,-0.71888 -0.26712,-0.22783 -0.73852,-0.22783 -0.60103,0 -0.91529,0.45175 -0.31427,0.45176 -0.3182,1.34348 v 0.36533 q 0,0.89957 0.34177,1.35919 0.34175,0.45961 1.00172,0.45961 0.66388,0 0.94672,-0.28283 v -0.98601 h -1.07243 v -0.86816 h 2.25091 z"
               id="path1072"
               style="font-weight:bold;font-size:10.6667px;line-height:1.25;font-family:Roboto;-inkscape-font-specification:'Roboto Bold';fill:#008000;stroke-width:0.75423" />
            <path
               d="m -148.41678,113.14817 h -0.91002 v 2.02946 h -1.14229 v -5.5439 h 2.05992 q 0.98237,0 1.51544,0.43787 0.53306,0.43788 0.53306,1.23748 0,0.56734 -0.24748,0.9481 -0.2437,0.37696 -0.7425,0.60161 l 1.1994,2.26552 v 0.0532 h -1.22605 z m -0.91002,-0.92526 h 0.92144 q 0.43027,0 0.66634,-0.21703 0.23608,-0.22085 0.23608,-0.60541 0,-0.39219 -0.22466,-0.61683 -0.22084,-0.22466 -0.68157,-0.22466 h -0.91763 z"
               id="path1074"
               style="font-weight:bold;font-size:10.6667px;line-height:1.25;font-family:Roboto;-inkscape-font-specification:'Roboto Bold';fill:#008000;stroke-width:0.73106" />
            <path
               d="m -140.70381,116.37316 h -2.2294 v 1.5095 h 2.61645 v 0.93279 h -3.7776 V 113.18 h 3.76987 v 0.94053 h -2.60872 v 1.34306 h 2.2294 z"
               id="path1076"
               style="font-weight:bold;font-size:10.6667px;line-height:1.25;font-family:Roboto;-inkscape-font-specification:'Roboto Bold';fill:#008000;stroke-width:0.743133" />
            <path
               d="m -135.59817,121.30755 q 0,-0.33959 -0.23972,-0.51939 -0.23973,-0.18379 -0.86301,-0.38357 -0.62328,-0.20376 -0.98685,-0.39953 -0.99087,-0.53538 -0.99087,-1.44232 0,-0.47147 0.26371,-0.83904 0.26769,-0.37157 0.76311,-0.57933 0.49942,-0.20776 1.11871,-0.20776 0.62328,0 1.11072,0.22773 0.48744,0.22375 0.75512,0.63527 0.27169,0.41153 0.27169,0.93492 h -1.19862 q 0,-0.39953 -0.25171,-0.61929 -0.2517,-0.22374 -0.70717,-0.22374 -0.4395,0 -0.68322,0.18779 -0.24372,0.18379 -0.24372,0.48743 0,0.28368 0.28367,0.47545 0.28768,0.19179 0.84303,0.35959 1.02281,0.30764 1.49028,0.76311 0.46746,0.45548 0.46746,1.1347 0,0.75512 -0.57134,1.18662 -0.57134,0.42751 -1.53821,0.42751 -0.67124,0 -1.2226,-0.24371 -0.55136,-0.24773 -0.84303,-0.67522 -0.28766,-0.42752 -0.28766,-0.99086 h 1.2026 q 0,0.96289 1.15069,0.96289 0.42749,0 0.66722,-0.17181 0.23972,-0.1758 0.23972,-0.48744 z"
               id="path1078"
               style="font-weight:bold;font-size:10.6667px;line-height:1.25;font-family:Roboto;-inkscape-font-specification:'Roboto Bold';fill:#008000;stroke-width:0.767111" />
            <path
               d="m -125.05812,131.35504 q 0,0.80563 -0.28479,1.41267 -0.28478,0.60704 -0.81688,0.93678 -0.52834,0.32975 -1.21406,0.32975 -0.67823,0 -1.21033,-0.326 -0.53209,-0.326 -0.82438,-0.92929 -0.29227,-0.60703 -0.29601,-1.39393 v -0.2698 q 0,-0.80563 0.28853,-1.41641 0.29227,-0.61453 0.82062,-0.94054 0.53209,-0.32974 1.21407,-0.32974 0.68198,0 1.21033,0.32974 0.53209,0.32601 0.82062,0.94054 0.29228,0.61078 0.29228,1.41267 z m -1.13914,-0.24731 q 0,-0.85809 -0.30725,-1.30401 -0.30728,-0.44591 -0.87684,-0.44591 -0.56581,0 -0.87308,0.44216 -0.30727,0.43842 -0.31101,1.28902 v 0.26605 q 0,0.83561 0.30726,1.29651 0.30727,0.4609 0.88433,0.4609 0.56581,0 0.86934,-0.44216 0.30351,-0.44591 0.30725,-1.29652 z"
               id="path1082"
               style="font-weight:bold;font-size:10.6667px;line-height:1.25;font-family:Roboto;-inkscape-font-specification:'Roboto Bold';fill:#008000;stroke-width:0.719447" />
            <path
               d="m -130.76331,126.81644 q 0,-0.33959 -0.23972,-0.51939 -0.23973,-0.18379 -0.86301,-0.38357 -0.62328,-0.20376 -0.98685,-0.39953 -0.99087,-0.53538 -0.99087,-1.44232 0,-0.47147 0.26371,-0.83904 0.26769,-0.37157 0.76311,-0.57933 0.49942,-0.20776 1.11871,-0.20776 0.62328,0 1.11072,0.22773 0.48744,0.22375 0.75512,0.63527 0.27169,0.41153 0.27169,0.93492 h -1.19862 q 0,-0.39953 -0.25171,-0.61929 -0.2517,-0.22374 -0.70717,-0.22374 -0.4395,0 -0.68322,0.18779 -0.24372,0.18379 -0.24372,0.48743 0,0.28368 0.28367,0.47545 0.28768,0.19179 0.84303,0.35959 1.02281,0.30764 1.49028,0.76311 0.46746,0.45548 0.46746,1.1347 0,0.75512 -0.57134,1.18662 -0.57134,0.42751 -1.53821,0.42751 -0.67124,0 -1.2226,-0.24371 -0.55136,-0.24773 -0.84303,-0.67522 -0.28766,-0.42752 -0.28766,-0.99086 h 1.2026 q 0,0.96289 1.15069,0.96289 0.42749,0 0.66722,-0.17181 0.23972,-0.1758 0.23972,-0.48744 z"
               id="path1115"
               style="font-weight:bold;font-size:10.6667px;line-height:1.25;font-family:Roboto;-inkscape-font-specification:'Roboto Bold';fill:#008000;stroke-width:0.767111" />
          </g>
        </g>
      </g>
    </g>
  </g>
</svg>
