<?xml version="1.0" encoding="UTF-8" standalone="no"?>
<svg
   xmlns:dc="http://purl.org/dc/elements/1.1/"
   xmlns:cc="http://creativecommons.org/ns#"
   xmlns:rdf="http://www.w3.org/1999/02/22-rdf-syntax-ns#"
   xmlns:svg="http://www.w3.org/2000/svg"
   xmlns="http://www.w3.org/2000/svg"
   xmlns:sodipodi="http://sodipodi.sourceforge.net/DTD/sodipodi-0.dtd"
   xmlns:inkscape="http://www.inkscape.org/namespaces/inkscape"
   version="1.1"
   id="svg2"
   width="60"
   height="60"
   viewBox="0 0 60 60"
   sodipodi:docname="pt_pt.svg"
   inkscape:version="1.0.2 (e86c870879, 2021-01-15)"
   inkscape:export-filename="/home/ilink/Projects/cassulo/resources/images/pt_pt.png"
   inkscape:export-xdpi="96"
   inkscape:export-ydpi="96">
  <metadata
     id="metadata8">
    <rdf:RDF>
      <cc:Work
         rdf:about="">
        <dc:format>image/svg+xml</dc:format>
        <dc:type
           rdf:resource="http://purl.org/dc/dcmitype/StillImage" />
        <dc:title></dc:title>
      </cc:Work>
    </rdf:RDF>
  </metadata>
  <defs
     id="defs6" />
  <sodipodi:namedview
     pagecolor="#ffffff"
     bordercolor="#666666"
     borderopacity="1"
     objecttolerance="10"
     gridtolerance="10"
     guidetolerance="10"
     inkscape:pageopacity="0"
     inkscape:pageshadow="2"
     inkscape:window-width="1280"
     inkscape:window-height="736"
     id="namedview4"
     showgrid="false"
     inkscape:zoom="5.8572012"
     inkscape:cx="-8.9191032"
     inkscape:cy="36.475733"
     inkscape:window-x="0"
     inkscape:window-y="0"
     inkscape:window-maximized="1"
     inkscape:current-layer="g10" />
  <g
     inkscape:groupmode="layer"
     inkscape:label="Image"
     id="g10">
    <g
       id="g1067"
       transform="translate(-0.27294347,2.4923478)">
      <g
         id="g1039"
         transform="matrix(0.12298888,0,0,0.10541804,57.900152,-1.2102778)">
        <rect
           style="fill:#e92b2b;fill-opacity:1;stroke:#00ff00;stroke-width:0;stroke-miterlimit:4;stroke-dasharray:none"
           id="rect14"
           width="286.2627"
           height="322.52542"
           x="-287.297"
           y="111.15678" />
        <rect
           style="fill:#32ab45;fill-opacity:1;stroke:#00ff00;stroke-width:0;stroke-miterlimit:4;stroke-dasharray:none"
           id="rect839"
           width="163.05721"
           height="322.52545"
           x="-448.22922"
           y="111.15678" />
      </g>
      <g
         id="g1031"
         transform="matrix(0.09880502,0,0,0.09880502,51.406819,0.59123715)">
        <path
           id="path850"
           style="fill:#fde60e;fill-opacity:1;stroke:#00ff00;stroke-width:0;stroke-miterlimit:4;stroke-dasharray:none"
           d="m -287.35744,206.63338 a 64.987022,65.786827 0 0 0 -64.95117,65.78515 64.987022,65.786827 0 0 0 64.98633,65.78711 64.987022,65.786827 0 0 0 64.98633,-65.78711 64.987022,65.786827 0 0 0 -64.98633,-65.78515 64.987022,65.786827 0 0 0 -0.0352,0 z m -29.4414,13.49804 h 23.63281 v 47.07227 h -23.63281 -23.05078 v -22.24414 h 23.05078 z m 34.92969,0 h 22.24414 v 23.05079 h 24.82812 v 23.63281 h -47.07226 v -23.63281 z m 0.38867,57.50391 h 23.63281 23.05078 v 22.24414 h -23.05078 v 24.82813 h -23.63281 z m -58.36914,0.38867 h 47.07226 v 23.63282 23.05078 h -22.24414 v -23.05078 h -24.82812 z" />
        <g
           id="g991"
           transform="matrix(1.1512423,0,0,1.1512423,-370.99145,26.227983)">
          <path
             style="fill:#e92b2b;fill-opacity:1;stroke:#000000;stroke-width:0;stroke-linecap:butt;stroke-linejoin:miter;stroke-miterlimit:4;stroke-dasharray:none;stroke-opacity:1"
             d="m 42.448533,181.67819 60.400417,-0.29238 0.0571,48.83463 c -2.30986,6.18437 -3.514167,12.03149 -12.309177,17.73529 -14.08002,8.23136 -24.29901,6.52339 -33.00212,0.91314 -5.46629,-3.81672 -9.70908,-5.19617 -15.10103,-18.37528 z"
             id="path985"
             sodipodi:nodetypes="ccccccc" />
          <path
             style="fill:#ffffff;fill-opacity:1;stroke:#000000;stroke-width:0;stroke-linecap:butt;stroke-linejoin:miter;stroke-miterlimit:4;stroke-dasharray:none;stroke-opacity:1"
             d="m 51.848348,192.81603 41.618686,-0.20149 0.0392,33.64926 c -1.5916,4.26151 -2.42142,8.29036 -8.481596,12.22057 -9.701793,5.67175 -16.743154,4.49489 -22.740006,0.62917 -3.76653,-2.62996 -6.690005,-3.5804 -10.405319,-12.66144 z"
             id="path987"
             sodipodi:nodetypes="ccccccc" />
        </g>
      </g>
    </g>
  </g>
</svg>
